<svg width="93" height="93" viewBox="0 0 93 93" fill="none" xmlns="http://www.w3.org/2000/svg">
<path d="M46.3621 92.7242C71.9671 92.7242 92.7242 71.9671 92.7242 46.3621C92.7242 20.757 71.9671 0 46.3621 0C20.757 0 0 20.757 0 46.3621C0 71.9671 20.757 92.7242 46.3621 92.7242Z" fill="#EFF1F9"/>
<path d="M46.8304 12.1759C48.3822 12.1759 49.6402 10.9179 49.6402 9.3661C49.6402 7.81428 48.3822 6.55627 46.8304 6.55627C45.2786 6.55627 44.0206 7.81428 44.0206 9.3661C44.0206 10.9179 45.2786 12.1759 46.8304 12.1759Z" fill="black" fill-opacity="0.1"/>
<path d="M9.36604 49.6402C10.9179 49.6402 12.1759 48.3822 12.1759 46.8303C12.1759 45.2785 10.9179 44.0205 9.36604 44.0205C7.81421 44.0205 6.55621 45.2785 6.55621 46.8303C6.55621 48.3822 7.81421 49.6402 9.36604 49.6402Z" fill="black" fill-opacity="0.1"/>
<path d="M83.3581 49.6402C84.91 49.6402 86.168 48.3822 86.168 46.8303C86.168 45.2785 84.91 44.0205 83.3581 44.0205C81.8063 44.0205 80.5483 45.2785 80.5483 46.8303C80.5483 48.3822 81.8063 49.6402 83.3581 49.6402Z" fill="black" fill-opacity="0.1"/>
<path d="M46.8304 86.1679C48.3822 86.1679 49.6402 84.9099 49.6402 83.358C49.6402 81.8062 48.3822 80.5482 46.8304 80.5482C45.2786 80.5482 44.0206 81.8062 44.0206 83.358C44.0206 84.9099 45.2786 86.1679 46.8304 86.1679Z" fill="black" fill-opacity="0.1"/>
<path fill-rule="evenodd" clip-rule="evenodd" d="M46.8304 14.9857L48.7036 45.8938H44.9572L46.8304 14.9857Z" fill="#AFB9C5"/>
<path fill-rule="evenodd" clip-rule="evenodd" d="M61.4281 62.2041L45.5334 48.9584L48.1825 46.3093L61.4281 62.2041Z" fill="#AFB9C5"/>
<path d="M46.3621 49.6402C48.1725 49.6402 49.6402 48.1726 49.6402 46.3621C49.6402 44.5517 48.1725 43.084 46.3621 43.084C44.5516 43.084 43.084 44.5517 43.084 46.3621C43.084 48.1726 44.5516 49.6402 46.3621 49.6402Z" fill="#C5CFD6"/>
</svg>
