<svg width="32" height="32" viewBox="0 0 32 32" fill="none" xmlns="http://www.w3.org/2000/svg">
<path d="M12.8799 32C12.7821 32 12.6843 31.9856 12.5875 31.9577C12.5103 31.935 5.01628 29.619 4.71672 22.0854C1.7119 19.6673 0 16.3552 0 12.9277C0 5.79925 7.17803 0 16 0C24.822 0 32 5.79925 32 12.9277C32 20.0561 24.822 25.8553 16 25.8553C15.2722 25.8553 14.529 25.8099 13.7405 25.7161C12.6833 26.7617 12.6709 28.3105 13.7075 30.3264C13.8475 30.5028 13.9309 30.7265 13.9309 30.9688C13.9309 31.5391 13.4708 32 12.9015 32C12.8943 31.999 12.8861 31.999 12.8799 32ZM15.999 2.06232C8.3114 2.06232 2.05778 6.93662 2.05778 12.9277C2.05778 15.8933 3.58232 18.6692 6.35347 20.7469C6.61391 20.9429 6.76626 21.2502 6.76523 21.577C6.74876 25.5264 9.1555 27.7908 11.0239 28.9519C10.4237 26.0698 11.9586 24.456 12.7862 23.8177C13.0055 23.6497 13.2803 23.5734 13.5562 23.6146C14.426 23.7352 15.2249 23.794 15.999 23.794C23.6866 23.794 29.9402 18.9197 29.9402 12.9287C29.9402 6.93661 23.6866 2.06232 15.999 2.06232Z" fill="#55D585"/>
<path d="M23.8687 11.8728H8.12816C7.5589 11.8728 7.09876 11.4108 7.09876 10.8416C7.09876 10.2724 7.5589 9.81045 8.12816 9.81045H23.8687C24.438 9.81045 24.8982 10.2724 24.8982 10.8416C24.8982 11.4108 24.438 11.8728 23.8687 11.8728Z" fill="#55D585"/>
<path d="M15.8168 15.9974H8.12816C7.5589 15.9974 7.09876 15.5355 7.09876 14.9663C7.09876 14.3971 7.5589 13.9351 8.12816 13.9351H15.8168C16.386 13.9351 16.8462 14.3971 16.8462 14.9663C16.8462 15.5355 16.386 15.9974 15.8168 15.9974Z" fill="#55D585"/>
</svg>
