<svg width="32" height="32" viewBox="0 0 32 32" fill="none" xmlns="http://www.w3.org/2000/svg">
<path d="M25.0365 32H5.96355C4.32907 32 3 30.6415 3 28.9717V3.0293C3 1.35856 4.32907 0 5.96355 0H25.0365C26.6709 0 28 1.35856 28 3.0293V28.9717C27.999 30.6415 26.67 32 25.0365 32ZM5.96257 2.01416C5.41478 2.01416 4.96946 2.46937 4.96946 3.0293V28.9717C4.96946 29.5317 5.41478 29.9858 5.96257 29.9858H25.0355C25.5832 29.9858 26.0286 29.5306 26.0286 28.9717V3.0293C26.0286 2.46937 25.5832 2.01416 25.0355 2.01416H5.96257Z" fill="#55D585"/>
<path d="M23.6591 9.38398H7.34874C7.07682 9.38398 6.85613 9.15839 6.85613 8.88044V4.34857C6.85613 4.07062 7.07682 3.84503 7.34874 3.84503H23.6591C23.931 3.84503 24.1517 4.07062 24.1517 4.34857V8.88044C24.1517 9.15839 23.932 9.38398 23.6591 9.38398ZM7.84234 8.37689H23.1675V4.85211H7.84234V8.37689Z" fill="#55D585"/>
<path d="M9.83938 14.0246H7.34972C7.0778 14.0246 6.85711 13.799 6.85711 13.5211V10.9762C6.85711 10.6982 7.0778 10.4726 7.34972 10.4726H9.83938C10.1113 10.4726 10.332 10.6982 10.332 10.9762V13.5211C10.332 13.8 10.1113 14.0246 9.83938 14.0246ZM7.84234 13.0175H9.34677V11.4797H7.84234V13.0175Z" fill="#55D585"/>
<path d="M14.4463 14.0246H11.9566C11.6847 14.0246 11.464 13.799 11.464 13.5211V10.9762C11.464 10.6982 11.6847 10.4726 11.9566 10.4726H14.4463C14.7182 10.4726 14.9389 10.6982 14.9389 10.9762V13.5211C14.9389 13.8 14.7182 14.0246 14.4463 14.0246ZM12.4492 13.0175H13.9537V11.4797H12.4492V13.0175Z" fill="#55D585"/>
<path d="M19.0532 14.0246H16.5635C16.2916 14.0246 16.0709 13.799 16.0709 13.5211V10.9762C16.0709 10.6982 16.2916 10.4726 16.5635 10.4726H19.0532C19.3251 10.4726 19.5458 10.6982 19.5458 10.9762V13.5211C19.5458 13.8 19.3251 14.0246 19.0532 14.0246ZM17.0551 13.0175H18.5596V11.4797H17.0551V13.0175Z" fill="#55D585"/>
<path d="M23.6591 14.0246H21.1694C20.8975 14.0246 20.6768 13.799 20.6768 13.5211V10.9762C20.6768 10.6982 20.8975 10.4726 21.1694 10.4726H23.6591C23.931 10.4726 24.1517 10.6982 24.1517 10.9762V13.5211C24.1517 13.8 23.932 14.0246 23.6591 14.0246ZM21.662 13.0175H23.1665V11.4797H21.662V13.0175Z" fill="#55D585"/>
<path d="M9.82953 18.7347H7.33987C7.06795 18.7347 6.84726 18.5091 6.84726 18.2312V15.6863C6.84726 15.4083 7.06795 15.1828 7.33987 15.1828H9.82953C10.1014 15.1828 10.3221 15.4083 10.3221 15.6863V18.2312C10.3221 18.5102 10.1014 18.7347 9.82953 18.7347ZM7.83248 17.7276H9.33692V16.1898H7.83248V17.7276Z" fill="#55D585"/>
<path d="M14.4364 18.7347H11.9468C11.6748 18.7347 11.4542 18.5091 11.4542 18.2312V15.6863C11.4542 15.4083 11.6748 15.1828 11.9468 15.1828H14.4364C14.7083 15.1828 14.929 15.4083 14.929 15.6863V18.2312C14.929 18.5102 14.7083 18.7347 14.4364 18.7347ZM12.4384 17.7276H13.9428V16.1898H12.4384V17.7276Z" fill="#55D585"/>
<path d="M19.0423 18.7347H16.5527C16.2808 18.7347 16.0601 18.5091 16.0601 18.2312V15.6863C16.0601 15.4083 16.2808 15.1828 16.5527 15.1828H19.0423C19.3143 15.1828 19.535 15.4083 19.535 15.6863V18.2312C19.535 18.5102 19.3152 18.7347 19.0423 18.7347ZM17.0453 17.7276H18.5497V16.1898H17.0453V17.7276Z" fill="#55D585"/>
<path d="M23.6492 18.7347H21.1596C20.8877 18.7347 20.667 18.5091 20.667 18.2312V15.6863C20.667 15.4083 20.8877 15.1828 21.1596 15.1828H23.6492C23.9212 15.1828 24.1418 15.4083 24.1418 15.6863V18.2312C24.1418 18.5102 23.9221 18.7347 23.6492 18.7347ZM21.6522 17.7276H23.1566V16.1898H21.6522V17.7276Z" fill="#55D585"/>
<path d="M9.83938 23.4459H7.34972C7.0778 23.4459 6.85711 23.2203 6.85711 22.9423V20.3974C6.85711 20.1195 7.0778 19.8939 7.34972 19.8939H9.83938C10.1113 19.8939 10.332 20.1195 10.332 20.3974V22.9423C10.332 23.2203 10.1113 23.4459 9.83938 23.4459ZM7.84234 22.4388H9.34677V20.901H7.84234V22.4388Z" fill="#55D585"/>
<path d="M14.4463 23.4459H11.9566C11.6847 23.4459 11.464 23.2203 11.464 22.9423V20.3974C11.464 20.1195 11.6847 19.8939 11.9566 19.8939H14.4463C14.7182 19.8939 14.9389 20.1195 14.9389 20.3974V22.9423C14.9389 23.2203 14.7182 23.4459 14.4463 23.4459ZM12.4492 22.4388H13.9537V20.901H12.4492V22.4388Z" fill="#55D585"/>
<path d="M19.0532 23.4459H16.5635C16.2916 23.4459 16.0709 23.2203 16.0709 22.9423V20.3974C16.0709 20.1195 16.2916 19.8939 16.5635 19.8939H19.0532C19.3251 19.8939 19.5458 20.1195 19.5458 20.3974V22.9423C19.5458 23.2203 19.3251 23.4459 19.0532 23.4459ZM17.0551 22.4388H18.5596V20.901H17.0551V22.4388Z" fill="#55D585"/>
<path d="M23.6591 23.4459H21.1694C20.8975 23.4459 20.6768 23.2203 20.6768 22.9423V20.3974C20.6768 20.1195 20.8975 19.8939 21.1694 19.8939H23.6591C23.931 19.8939 24.1517 20.1195 24.1517 20.3974V22.9423C24.1517 23.2203 23.932 23.4459 23.6591 23.4459ZM21.662 22.4388H23.1665V20.901H21.662V22.4388Z" fill="#55D585"/>
<path d="M9.83938 28.156H7.34972C7.0778 28.156 6.85711 27.9304 6.85711 27.6524V25.1075C6.85711 24.8296 7.0778 24.604 7.34972 24.604H9.83938C10.1113 24.604 10.332 24.8296 10.332 25.1075V27.6524C10.332 27.9304 10.1113 28.156 9.83938 28.156ZM7.84234 27.1489H9.34677V25.6111H7.84234V27.1489Z" fill="#55D585"/>
<path d="M14.4463 28.156H11.9566C11.6847 28.156 11.464 27.9304 11.464 27.6524V25.1075C11.464 24.8296 11.6847 24.604 11.9566 24.604H14.4463C14.7182 24.604 14.9389 24.8296 14.9389 25.1075V27.6524C14.9389 27.9304 14.7182 28.156 14.4463 28.156ZM12.4492 27.1489H13.9537V25.6111H12.4492V27.1489Z" fill="#55D585"/>
<path d="M23.6591 28.156H16.5625C16.2906 28.156 16.0699 27.9304 16.0699 27.6524V25.1075C16.0699 24.8296 16.2906 24.604 16.5625 24.604H23.6591C23.931 24.604 24.1517 24.8296 24.1517 25.1075V27.6524C24.1517 27.9304 23.932 28.156 23.6591 28.156ZM17.0551 27.1489H23.1665V25.6111H17.0551V27.1489Z" fill="#55D585"/>
<path d="M22.0315 7.92271C21.7596 7.92271 21.5389 7.69712 21.5389 7.41916V5.80984C21.5389 5.53189 21.7596 5.3063 22.0315 5.3063C22.3034 5.3063 22.5241 5.53189 22.5241 5.80984V7.41916C22.5241 7.69712 22.3034 7.92271 22.0315 7.92271Z" fill="#55D585"/>
</svg>
