<svg width="218" height="181" viewBox="0 0 218 181" fill="none" xmlns="http://www.w3.org/2000/svg">
<path fill-rule="evenodd" clip-rule="evenodd" d="M67.6184 169.593C67.9133 173.21 71.7949 175.964 74.5519 172.221C77.504 168.213 73.8214 162.044 71.6354 158.623C71.8279 158.981 68.8746 162.252 68.5582 162.96C67.6247 165.048 67.4386 167.368 67.6184 169.593ZM119.12 95.3738C119.301 94.3096 119.142 95.2827 119.12 95.3738V95.3738ZM87.1678 161.658C89.4216 162.541 91.6978 161.297 92.3965 159.07C93.2281 156.419 91.4017 153.56 89.9122 151.501C89.2382 150.57 85.6398 145.597 85.5269 147.348C85.5055 147.231 85.473 146.98 85.4637 146.696C85.8179 146.33 86.167 145.959 86.5112 145.585C86.548 145.605 86.5835 145.619 86.6215 145.642C86.5841 145.615 86.5519 145.6 86.5169 145.579C89.9551 141.832 92.869 137.672 95.1888 133.112C95.372 134.195 95.6591 135.259 96.1008 136.249C97.4083 139.181 103.037 143.643 104.857 138.418C106.602 133.407 100.058 131.096 97.5212 128.087C100.112 122.175 102.312 116.044 104.264 109.83C104.474 110.015 104.746 110.126 105.05 110.101C105.191 112.047 105.04 114.251 105.582 115.807C106.365 118.053 108.589 122.291 111.309 122.727C114.653 123.263 115.25 120.209 114.346 117.769C113.035 114.231 108.942 111.008 106.027 108.584C105.877 108.198 105.542 107.878 105.121 107.818C105.057 107.764 104.994 107.709 104.933 107.656C106.835 101.407 108.512 95.0957 110.114 88.8609C110.137 88.9035 110.159 88.9464 110.183 88.9909C110.126 90.4033 110.235 91.8177 110.662 93.1675C111.646 96.2922 113.592 99.5014 116.933 100.53C120.261 101.555 124.212 100.275 125.059 96.6716C126.755 89.4596 112.48 88.7764 110.655 86.7268C112.241 80.4158 113.427 74.0334 114.499 67.6299C114.643 68.1995 114.834 68.758 115.095 69.2976C117.22 73.6949 128.313 80.3963 130.289 72.283C132.01 65.213 120.366 65.1139 115.209 63.2954C116.181 57.2835 117.116 51.2636 118.252 45.2785C118.974 47.7477 120.141 49.856 122.227 51.7252C124.386 53.6587 128.509 56.4004 130.83 52.9929C133.191 49.5274 128.914 45.8353 126.423 44.069C125.064 43.1056 121.56 41.6358 119.36 39.8258C121.528 30.0641 124.808 20.7783 130.051 12.1116C133.326 6.7006 137.304 1.70923 141.773 -2.79381C144.626 -5.66803 149.264 -10.7483 153.874 -13.0142C144.07 -9.42727 135.287 -0.198558 129.348 7.65435C123.887 14.8752 120.194 23.0263 117.593 31.5518C112.887 32.5887 100.639 25.0985 100.935 33.7414C101.1 38.326 106.44 39.9565 110.284 38.7017C112.925 37.8392 115.37 35.3186 117.121 33.1441C116.358 35.793 115.69 38.4725 115.11 41.17C114.307 44.8979 113.605 48.6443 112.944 52.3978C106.596 50.621 93.1805 53.3301 94.6885 59.8643C96.9229 69.5087 109.667 56.673 112.156 54.4325C112.068 54.2671 111.944 54.1716 111.783 54.1421C112.07 54.0337 112.379 53.9221 112.698 53.8201C111.455 60.9913 110.336 68.1847 108.942 75.3262C108.375 75.0935 106.775 75.1373 105.821 74.9921C103.669 74.6632 101.484 74.4232 99.3044 74.5935C95.8602 74.8632 90.8656 76.1148 91.4041 80.4928C91.9867 85.256 97.8568 84.2041 100.727 82.5381C102.713 81.3856 104.265 79.7427 106.032 78.3189C106.583 77.8747 109.506 76.595 107.842 76.4765C108.297 76.259 108.613 76.0793 108.823 75.929C108.569 77.2134 108.303 78.4962 108.028 79.7771C107.907 79.797 107.783 79.832 107.655 79.8989C106.777 80.3593 106.964 81.3996 107.574 81.8451C107.19 83.5479 106.786 85.2478 106.35 86.941C105.426 90.5292 104.456 94.1884 103.428 97.8615C102.706 97.6248 102.236 98.1679 101.507 97.9784C100.779 97.789 99.9843 97.038 99.2403 96.7494C97.3681 96.0238 95.1553 95.8136 93.1549 95.8987C89.8505 96.0403 83.5723 97.4134 84.7562 102.02C85.9745 106.77 92.2488 105.828 95.5529 104.221C96.1931 103.91 101.412 100.203 103.197 98.6753C101.274 105.483 99.1422 112.322 96.6956 118.823C96.0008 117.704 91.7259 115.896 90.6965 115.628C88.1855 114.975 83.2304 114.508 83.0908 118.345C82.9707 121.755 87.1439 123.396 90.0506 123.101C90.529 123.052 94.3759 121.599 95.9649 120.722C94.9044 123.441 93.7892 126.096 92.6055 128.653C91.8202 130.356 90.9634 132.02 90.0441 133.647C89.8178 133.52 89.5168 133.454 89.1753 133.425C85.9841 129.748 76.347 128.362 77.0197 134.504C77.3414 137.427 81.0582 138.601 83.5474 138.65C84.0569 138.661 86.1424 137.931 87.793 137.364C84.5368 142.407 80.68 147.071 76.4448 151.392C76.1387 151.089 75.6797 150.95 75.1816 151.191C72.8268 149.884 70.918 148.881 67.8693 148.801C65.9756 148.751 61.9024 149.054 62.6812 152.037C63.6949 155.919 70.0487 154.969 72.7225 153.751C73.0329 153.609 73.8795 153.106 74.6494 152.635C74.7031 152.759 74.7752 152.873 74.8645 152.975C72.2012 155.583 69.4049 158.062 66.5282 160.421C64.8489 158.97 55.0968 164.327 54.4631 166.332C53.0412 170.816 58.5933 170.094 60.8342 168.572C63.4763 166.776 65.2263 164.067 66.553 161.291C66.6922 160.995 66.708 161.046 66.3564 161.199C66.5043 161.081 66.5911 160.957 66.6294 160.827C68.12 160.046 69.6886 159.316 70.9241 158.488C74.4621 156.115 77.8885 153.511 81.1307 150.757C81.9193 150.087 82.6875 149.4 83.4357 148.696C83.0675 150.881 83.1444 153.487 83.2615 154.455C83.5665 156.968 84.4509 160.593 87.1678 161.658ZM153.745 -13.2536C155.078 -13.9186 156.385 -14.3839 157.607 -14.5304C156.316 -14.1985 155.027 -13.7668 153.745 -13.2536Z" fill="#178ACB"/>
<path fill-rule="evenodd" clip-rule="evenodd" d="M81.4881 80.1924C77.5699 73.6948 80.5214 62.217 83.2717 55.5137C86.6748 47.2191 91.7804 39.2385 97.0983 32.0436C105.858 20.1912 117.906 9.85832 129.291 0.648853C130.663 -0.460976 147.233 -14.2461 148.548 -12.0946C149.851 -9.96306 131.412 2.84225 127.935 5.90772C120.514 12.4488 112.485 18.0385 106.339 25.93C99.9752 34.101 95.3279 43.4398 92.0327 53.1694C91.61 54.4182 89.3161 58.1851 91.1494 58.8968C92.9425 59.593 94.3335 52.555 94.7575 51.3735C96.5087 46.4948 98.6912 41.7266 101.231 37.1894C105.989 28.6884 112.191 21.2749 119.857 15.1964C124.187 19.0583 124.726 25.0216 121.56 30.0281C118.824 34.3548 114.517 38.0238 112.131 42.3587C110.487 45.3442 109.703 48.6222 109.536 51.9948C109.095 60.8912 112.346 67.1959 105.848 74.9641C100.754 81.0539 87.1261 89.5277 81.4881 80.1924Z" fill="#55D585"/>
<path fill-rule="evenodd" clip-rule="evenodd" d="M121.385 54.7114C119.025 62.679 120.331 70.9433 122.103 78.8859C125.554 94.3483 126.918 103.414 121.391 119.231C118.14 128.533 114.611 138.336 117.153 148.237C119.004 155.447 124.634 164.126 132.809 165.074C146.027 165.555 156.173 155.622 162.011 144.639C169.245 131.025 168.395 119.215 159.886 107.013C155.091 100.14 153.047 93.8255 153.514 85.413C153.886 78.6856 156.252 71.4841 155.595 64.7457C154.611 54.6723 149.868 47.4242 140.912 43.2319C139.386 62.2792 139.072 82.294 142.162 101.145C142.397 102.991 145.405 111.415 142.862 112.669C140.062 114.049 139.414 101.682 139.424 101.76C138.626 96.1297 138.212 90.4252 137.874 84.7178C137.884 84.7187 137.894 84.7222 137.904 84.7233C137.548 78.8604 137.254 72.9542 137.048 67.0336C137.014 64.5636 137.026 62.0915 137.115 59.6067C137.245 55.9606 139.604 46.8916 138.06 43.6049C137.73 42.902 137.342 42.3782 136.913 41.9892C137.03 37.9616 137.21 33.9415 137.497 29.9415C138.248 19.4947 139.888 9.00942 143.889 -0.756877C145.057 -3.60724 151.619 -12.8588 151.076 -15.8076C150.085 -21.2006 146.795 -14.1592 145.71 -12.0926C136.735 5.02493 133.563 22.4857 133.14 41.4575C128.336 43.1545 122.342 51.4834 121.385 54.7114Z" fill="#55D585"/>
</svg>
