<svg width="33" height="32" viewBox="0 0 33 32" fill="none" xmlns="http://www.w3.org/2000/svg">
<path d="M17.5 1.5C25.5156 1.50005 21.5 25 32.5 31H0.5C2.16667 31 6.4 30 10 26.0001C14.5 21.0002 0.5 1.49989 17.5 1.5Z" fill="#E4ECF7"/>
<path d="M31.107 28.336C30.907 28.203 27.259 25.811 21.835 24.637C23.825 22.116 25.1041 18.725 25.6471 16.468C26.4011 13.34 26.108 7.22001 23.104 3.40601C21.348 1.17701 18.891 0 15.999 0C13.106 0 10.649 1.17801 8.89504 3.40601C5.89104 7.21801 5.59807 13.339 6.35207 16.466C6.88207 18.67 8.11706 21.949 10.0271 24.448C10.0131 24.522 10.004 24.596 10.007 24.671C4.67004 25.857 1.08905 28.202 0.892046 28.334C0.159046 28.822 -0.169984 29.733 0.0860159 30.576C0.340016 31.421 1.11904 31.999 1.99904 31.999H29.999C30.88 31.999 31.657 31.421 31.913 30.577C32.168 29.736 31.84 28.824 31.107 28.336ZM1.99904 29.999C2.14004 29.905 5.50006 27.691 10.5841 26.59C10.9551 26.51 11.2811 26.32 11.5451 26.065C12.2901 26.371 13.3821 26.668 14.8161 26.668C15.4771 26.668 16.2121 26.605 17.0191 26.45C17.5611 26.346 17.9161 25.822 17.8131 25.28C17.7091 24.737 17.179 24.382 16.642 24.486C14.263 24.942 12.77 24.455 12.077 24.117C12.008 23.859 11.9011 23.611 11.7301 23.395C9.97406 21.172 8.80406 18.117 8.29506 15.997C7.65406 13.341 7.90104 7.89603 10.465 4.64203C11.846 2.88803 13.707 1.99902 15.997 1.99902C18.288 1.99902 20.149 2.88901 21.531 4.64301C24.094 7.89701 24.3411 13.343 23.7011 15.999C23.1911 18.116 22.0211 21.171 20.2641 23.397C19.8361 23.939 19.7181 24.663 19.9511 25.312C20.1841 25.961 20.736 26.445 21.411 26.591C26.47 27.686 29.859 29.908 29.997 30L1.99904 29.999Z" fill="#02509C"/>
</svg>
