<svg width="25" height="30" viewBox="0 0 25 30" fill="none" xmlns="http://www.w3.org/2000/svg">
<path d="M22.5 6.50006C21.7 0.900056 9.16667 1.50006 3 2.50006V19C3 25.5 11.5 30 19 28C26.5 26 23.5 13.5001 22.5 6.50006Z" fill="#E4ECF7"/>
<path d="M7.14286 7.14286C6.74837 7.14286 6.42857 7.46265 6.42857 7.85714C6.42857 8.25163 6.74837 8.57143 7.14286 8.57143H14.2857C14.6802 8.57143 15 8.25163 15 7.85714C15 7.46265 14.6802 7.14286 14.2857 7.14286H7.14286ZM6.42857 10.7143C6.42857 11.1088 6.74837 11.4286 7.14286 11.4286H18.5714C18.9659 11.4286 19.2857 11.1088 19.2857 10.7143C19.2857 10.3198 18.9659 10 18.5714 10H7.14286C6.74837 10 6.42857 10.3198 6.42857 10.7143ZM19.2857 13.5714C19.2857 13.1769 18.9659 12.8571 18.5714 12.8571H7.14286C6.74837 12.8571 6.42857 13.1769 6.42857 13.5714C6.42857 13.9659 6.74837 14.2857 7.14286 14.2857H18.5714C18.9659 14.2857 19.2857 13.9659 19.2857 13.5714ZM18.5714 17.1429C18.9659 17.1429 19.2857 16.8231 19.2857 16.4286C19.2857 16.0341 18.9659 15.7143 18.5714 15.7143H9.28571C8.89122 15.7143 8.57143 16.0341 8.57143 16.4286C8.57143 16.8231 8.89122 17.1429 9.28571 17.1429H18.5714ZM4.28571 22.1429C4.28571 21.7484 3.96592 21.4286 3.57143 21.4286C3.17694 21.4286 2.85714 21.7484 2.85714 22.1429V24.2857H0.714287C0.319798 24.2857 0 24.6055 0 25C0 25.3945 0.319797 25.7143 0.714286 25.7143H2.85714V27.8571C2.85714 28.2516 3.17694 28.5714 3.57143 28.5714C3.96592 28.5714 4.28571 28.2516 4.28571 27.8571V25.7143H6.42857C6.82306 25.7143 7.14286 25.3945 7.14286 25C7.14286 24.6055 6.82306 24.2857 6.42857 24.2857H4.28571V22.1429ZM2.71429 0C1.60972 0 0.714286 0.895431 0.714286 2V17.5C0.714286 18.0917 1.19398 18.5714 1.78571 18.5714C2.37745 18.5714 2.85714 18.0917 2.85714 17.5V2H23V28H10.2857C9.73343 28 9.28571 28.4477 9.28571 29C9.28571 29.5523 9.73343 30 10.2857 30H23C24.1046 30 25 29.1046 25 28V2C25 0.89543 24.1046 0 23 0H2.71429Z" fill="#02509C"/>
</svg>
