<svg width="31" height="38" viewBox="0 0 31 38" fill="none" xmlns="http://www.w3.org/2000/svg">
<path d="M25.5981 1.75453C22.0981 -4.74547 8.09808 8.25453 7.09808 17.2545C6.59808 18.4212 4.99808 20.3546 2.59808 18.7546C-0.401924 16.7546 -0.401924 23.7546 0.598076 30.7546C1.59808 37.7546 29.5981 41.7546 30.0981 29.2546C30.5981 16.7546 29.0981 8.25453 25.5981 1.75453Z" fill="#E4ECF7"/>
<path d="M2 34H29C30.1 34 31 33.1 31 32V6C31 4.9 30.1 4 29 4H7C5.9 4 5 4.9 5 6V18H2C1.4 18 1 18.4 1 19V33C1 33.6 1.4 34 2 34ZM3 20H5V28C5 28.6 5.4 29 6 29C6.6 29 7 28.6 7 28V6H29V32H3V20Z" fill="#02509C"/>
<path d="M25.5625 25H12.4375C12.175 25 12 25.2 12 25.5C12 25.8 12.175 26 12.4375 26H25.5625C25.825 26 26 25.8 26 25.5C26 25.2 25.825 25 25.5625 25Z" fill="#02509C"/>
<path d="M25.5625 22H12.4375C12.175 22 12 22.2 12 22.5C12 22.8 12.175 23 12.4375 23H25.5625C25.825 23 26 22.8 26 22.5C26 22.2 25.825 22 25.5625 22Z" fill="#02509C"/>
<path d="M25.5625 19H12.4375C12.175 19 12 19.2 12 19.5C12 19.8 12.175 20 12.4375 20H25.5625C25.825 20 26 19.8 26 19.5C26 19.2 25.825 19 25.5625 19Z" fill="#02509C"/>
<path d="M25.5625 16H12.4375C12.175 16 12 16.2 12 16.5C12 16.8 12.175 17 12.4375 17H25.5625C25.825 17 26 16.8 26 16.5C26 16.2 25.825 16 25.5625 16Z" fill="#02509C"/>
<path d="M25.5625 13H12.4375C12.175 13 12 13.2 12 13.5C12 13.8 12.175 14 12.4375 14H25.5625C25.825 14 26 13.8 26 13.5C26 13.2 25.825 13 25.5625 13Z" fill="#02509C"/>
<path d="M25.5625 10H12.4375C12.175 10 12 10.2 12 10.5C12 10.8 12.175 11 12.4375 11H25.5625C25.825 11 26 10.8 26 10.5C26 10.2 25.825 10 25.5625 10Z" fill="#02509C"/>
<path d="M11 10.5C11 10.7761 10.7761 11 10.5 11C10.2239 11 10 10.7761 10 10.5C10 10.2239 10.2239 10 10.5 10C10.7761 10 11 10.2239 11 10.5Z" fill="#02509C"/>
<path d="M11 13.5C11 13.7761 10.7761 14 10.5 14C10.2239 14 10 13.7761 10 13.5C10 13.2239 10.2239 13 10.5 13C10.7761 13 11 13.2239 11 13.5Z" fill="#02509C"/>
<path d="M11 16.5C11 16.7761 10.7761 17 10.5 17C10.2239 17 10 16.7761 10 16.5C10 16.2239 10.2239 16 10.5 16C10.7761 16 11 16.2239 11 16.5Z" fill="#02509C"/>
<path d="M11 19.5C11 19.7761 10.7761 20 10.5 20C10.2239 20 10 19.7761 10 19.5C10 19.2239 10.2239 19 10.5 19C10.7761 19 11 19.2239 11 19.5Z" fill="#02509C"/>
<path d="M11 22.5C11 22.7761 10.7761 23 10.5 23C10.2239 23 10 22.7761 10 22.5C10 22.2239 10.2239 22 10.5 22C10.7761 22 11 22.2239 11 22.5Z" fill="#02509C"/>
<path d="M11 25.5C11 25.7761 10.7761 26 10.5 26C10.2239 26 10 25.7761 10 25.5C10 25.2239 10.2239 25 10.5 25C10.7761 25 11 25.2239 11 25.5Z" fill="#02509C"/>
</svg>
