<svg width="25" height="30" viewBox="0 0 25 30" fill="none" xmlns="http://www.w3.org/2000/svg">
<path d="M22.5 6.65435C21.7 1.05435 9.16667 1.65435 3 2.65435V19.1543C3 25.6543 11.5 30.1543 19 28.1543C26.5 26.1543 23.5 13.6544 22.5 6.65435Z" fill="#E4ECF7"/>
<path d="M2.85715 1.9H2.75715V2V17.5C2.75715 18.0365 2.32223 18.4714 1.78572 18.4714C1.24922 18.4714 0.814294 18.0365 0.814294 17.5V2C0.814294 0.950659 1.66495 0.1 2.7143 0.1H23C24.0494 0.1 24.9 0.950659 24.9 2V28C24.9 29.0493 24.0494 29.9 23 29.9H10.2857C9.78867 29.9 9.38572 29.4971 9.38572 29C9.38572 28.5029 9.78867 28.1 10.2857 28.1H23H23.1V28V2V1.9H23H2.85715ZM2.4743 26.1493L2.54489 26.3307L2.65125 26.1676L4.78961 22.8894C4.9982 22.5696 5.42214 22.4718 5.7498 22.6677C6.08774 22.8698 6.19697 23.3082 5.99339 23.6452L3.06862 28.4876C2.92101 28.732 2.57223 28.7475 2.40353 28.5172L0.978823 26.572C0.770037 26.2869 0.776887 25.8976 0.995571 25.6201C1.37234 25.1419 2.12613 25.2544 2.34687 25.8217L2.4743 26.1493ZM6.52858 7.85714C6.52858 7.51788 6.8036 7.24286 7.14286 7.24286H14.2857C14.625 7.24286 14.9 7.51788 14.9 7.85714C14.9 8.1964 14.625 8.47143 14.2857 8.47143H7.14287C6.80361 8.47143 6.52858 8.1964 6.52858 7.85714ZM7.14287 11.3286C6.80361 11.3286 6.52858 11.0535 6.52858 10.7143C6.52858 10.375 6.80361 10.1 7.14287 10.1H18.5714C18.9107 10.1 19.1857 10.375 19.1857 10.7143C19.1857 11.0535 18.9107 11.3286 18.5714 11.3286H7.14287ZM18.5714 12.9571C18.9107 12.9571 19.1857 13.2322 19.1857 13.5714C19.1857 13.9107 18.9107 14.1857 18.5714 14.1857H7.14287C6.80361 14.1857 6.52858 13.9107 6.52858 13.5714C6.52858 13.2322 6.80361 12.9571 7.14287 12.9571H18.5714ZM19.1857 16.4286C19.1857 16.7678 18.9107 17.0429 18.5714 17.0429H9.28572C8.94646 17.0429 8.67144 16.7678 8.67144 16.4286C8.67144 16.0893 8.94646 15.8143 9.28572 15.8143H18.5714C18.9107 15.8143 19.1857 16.0893 19.1857 16.4286Z" fill="#02509C" stroke="#EFF1F9" stroke-width="0.2"/>
</svg>
