<svg width="32" height="32" viewBox="0 0 32 32" fill="none" xmlns="http://www.w3.org/2000/svg">
<path d="M13.5 28.5L4 31C4 29 4.5 23.5 6.5 17.5C9 10 31 2.50001 31 8.00001C31 12.4 19.3333 23.5 13.5 28.5Z" fill="#E4ECF7"/>
<path d="M29.2614 2.58599C27.9984 1.32299 26.4743 0.451991 24.9704 0.132991C23.3104 -0.217009 21.8584 0.128988 20.8764 1.10999L16.9404 5.04599L3.38534 18.601C3.30334 18.683 3.24235 18.783 3.19235 18.889C3.17935 18.916 3.16934 18.942 3.15934 18.97C3.14934 18.997 3.13336 19.022 3.12636 19.05L0.0343449 30.589C-0.0586551 30.934 0.0403476 31.302 0.293348 31.555C0.483348 31.745 0.738348 31.848 1.00035 31.848C1.08635 31.848 1.17335 31.837 1.25935 31.814L12.7984 28.722C12.8244 28.715 12.8463 28.7 12.8723 28.691C12.9013 28.681 12.9274 28.669 12.9553 28.657C13.0633 28.607 13.1653 28.545 13.2483 28.462L26.8033 14.908L30.7393 10.972C32.6753 9.034 32.0264 5.35099 29.2614 2.58599ZM27.8473 4C29.3273 5.48 30.0663 7.34599 29.8043 8.62299L23.2243 2.04299C24.5023 1.77999 26.3673 2.521 27.8473 4ZM19.9693 4.84599L27.0023 11.879L26.0954 12.786L19.0623 5.75299L19.9693 4.84599ZM2.93734 27.483L4.61035 21.241L7.60934 24.24L10.6083 27.239L4.36635 28.912L2.93734 27.483ZM17.6474 7.167L18.9293 8.44899L6.78735 20.59L5.50535 19.308L17.6474 7.167ZM9.02235 22.825L7.49435 21.298L19.6364 9.15699L22.6913 12.212L10.5504 24.353L9.02235 22.825ZM12.5393 26.342L11.2574 25.06L23.3983 12.919L24.6803 14.201L12.5393 26.342ZM27.7093 11.172L20.6763 4.139L21.5833 3.23199L28.6163 10.265L27.7093 11.172Z" fill="#02509C"/>
</svg>
