<svg width="32" height="32" viewBox="0 0 32 32" fill="none" xmlns="http://www.w3.org/2000/svg">
<path d="M10.8614 30.5002C7.34049 30.5003 5.53698 26.2798 7.97067 23.7353L22.8267 8.20332C25.3197 5.59693 29.7173 7.36147 29.7174 10.9681L29.7174 26.4997C29.7174 28.7088 27.9266 30.4997 25.7175 30.4997L10.8614 30.5002Z" fill="#E4ECF7"/>
<path d="M31.1332 0.0766349C30.7592 -0.0793651 30.3292 0.00763014 30.0432 0.29363L0.293174 30.0436C0.00717434 30.3296 -0.0788056 30.7596 0.0761944 31.1336C0.230194 31.5076 0.596175 31.7506 1.00018 31.7506H30.7502C31.3032 31.7506 31.7502 31.3036 31.7502 30.7506V1.00063C31.7502 0.596631 31.5072 0.231635 31.1332 0.0766349ZM3.41418 29.7506L29.7502 3.41463V8.37563H27.6882C27.1352 8.37563 26.6882 8.82263 26.6882 9.37563C26.6882 9.92863 27.1352 10.3756 27.6882 10.3756H29.7502V12.6986H27.6882C27.1352 12.6986 26.6882 13.1456 26.6882 13.6986C26.6882 14.2516 27.1352 14.6986 27.6882 14.6986H29.7502V17.0206H27.6882C27.1352 17.0206 26.6882 17.4676 26.6882 18.0206C26.6882 18.5736 27.1352 19.0206 27.6882 19.0206H29.7502V21.3436H27.6882C27.1352 21.3436 26.6882 21.7906 26.6882 22.3436C26.6882 22.8966 27.1352 23.3436 27.6882 23.3436H29.7502V25.6666H27.6882C27.1352 25.6666 26.6882 26.1136 26.6882 26.6666C26.6882 27.2196 27.1352 27.6666 27.6882 27.6666H29.7502V29.7496H3.41418V29.7506Z" fill="#02509C"/>
<path d="M23.6522 16.8696C23.3722 16.7546 23.0492 16.8176 22.8352 17.0326L17.0322 22.8356C16.8172 23.0506 16.7542 23.3726 16.8692 23.6526C16.9852 23.9326 17.2592 24.1156 17.5622 24.1156H23.3652C23.7792 24.1156 24.1152 23.7796 24.1152 23.3656V17.5626C24.1152 17.2596 23.9332 16.9866 23.6522 16.8696ZM22.6152 22.6156H19.3732L22.6152 19.3736V22.6156Z" fill="#02509C"/>
</svg>
