<svg width="33" height="33" viewBox="0 0 33 33" fill="none" xmlns="http://www.w3.org/2000/svg">
<path d="M20.2135 2.38559C14.5426 4.41964 11.302 -1.68233 4.01081 6.04688C-3.28037 13.7761 14.4671 15.4942 5.63117 21.5057C-2.65161 27.1409 3.35441 33.6272 7 32C10.6456 30.3728 13.1392 20.3046 18 26C22.8608 31.6954 25.9285 32.4259 29.53 27.2011C33.1755 21.9125 14.1375 21.0989 23.049 16.624C31.9604 12.1491 25.8844 0.35153 20.2135 2.38559Z" fill="#E4ECF7"/>
<path d="M21.808 17.2911L31.029 8.07006C32.378 6.71906 32.378 4.52205 31.028 3.17205L29.401 1.54506C28.092 0.238063 25.81 0.23807 24.504 1.54607L16.006 10.0451C16.405 7.59406 15.628 5.07205 13.813 3.25805C11.544 0.989045 8.16999 0.330043 5.21499 1.58104C4.90799 1.71004 4.68598 1.98405 4.62298 2.31005C4.55898 2.63705 4.662 2.97306 4.897 3.20806L7.91299 6.22405L7.27099 7.80706L5.70199 8.45507L2.67599 5.42907C2.44099 5.19407 2.103 5.08807 1.777 5.15407C1.45 5.21807 1.177 5.44005 1.048 5.74605C-0.201003 8.70205 0.456999 12.077 2.725 14.344C4.778 16.398 7.73599 17.118 10.47 16.314C10.408 16.575 10.366 16.8431 10.366 17.1181C10.366 17.6371 10.491 18.134 10.706 18.59L4.51299 24.7821L3.28799 25.4581C3.27999 25.4621 3.276 25.4721 3.268 25.4761C3.192 25.5201 3.13697 25.5881 3.07497 25.6511C3.02997 25.6971 2.97597 25.731 2.94097 25.784C2.93697 25.79 2.93099 25.7921 2.92699 25.7981L0.154991 30.1751C-0.0950088 30.5711 -0.0380084 31.087 0.292992 31.418L1.156 32.28C1.349 32.473 1.605 32.5721 1.863 32.5721C2.047 32.5721 2.23297 32.5211 2.39797 32.4171L6.77599 29.6451C6.78199 29.6411 6.78498 29.6341 6.79098 29.6301C6.84398 29.5951 6.87897 29.5411 6.92397 29.4961C6.98597 29.4341 7.05398 29.3791 7.09798 29.3041C7.10298 29.2961 7.112 29.2921 7.117 29.2831L7.79198 28.0581L13.983 21.8671C14.439 22.0821 14.936 22.2071 15.455 22.2071C15.803 22.2071 16.138 22.1401 16.462 22.0421L25.517 31.0971C26.191 31.7721 27.088 32.1431 28.042 32.1431C28.996 32.1431 29.893 31.7711 30.567 31.0971C31.241 30.4221 31.612 29.5261 31.612 28.5721C31.612 27.6181 31.24 26.7221 30.566 26.0481L21.808 17.2911ZM4.139 12.931C2.832 11.624 2.24299 9.82405 2.47399 8.05605L4.75997 10.3421C5.04597 10.6281 5.47499 10.7121 5.84899 10.5591L8.42199 9.49605C8.66999 9.39305 8.86597 9.19607 8.96697 8.94707L10.015 6.36107C10.166 5.98907 10.08 5.56207 9.79498 5.27907L7.52297 3.00707C9.28897 2.78007 11.091 3.36505 12.399 4.67305C14.089 6.36105 14.579 8.87605 13.648 11.077C13.489 11.452 13.574 11.8861 13.862 12.1741L13.869 12.181L11.649 14.4011L11.642 14.3941C11.354 14.1061 10.921 14.021 10.545 14.18C8.34498 15.111 5.83 14.621 4.139 12.931ZM6.984 26.0401L6.53399 25.5911L11.968 20.1571L12.417 20.6061L6.984 26.0401ZM3.94799 27.926L4.64898 28.6271L2.73699 29.8381L3.94799 27.926ZM14.476 19.8171L12.712 18.0531C12.492 17.7901 12.367 17.466 12.367 17.12C12.367 16.729 12.519 16.3611 12.796 16.0841L25.92 2.96007C26.195 2.68407 26.563 2.53206 26.954 2.53206C27.345 2.53206 27.713 2.68407 27.989 2.96007L29.615 4.58605C30.185 5.15705 30.185 6.08706 29.615 6.65706L16.49 19.7811C15.953 20.3181 15.035 20.3231 14.476 19.8171ZM29.152 29.685C28.559 30.279 27.525 30.279 26.931 29.685L18.172 20.926L20.393 18.7051L29.152 27.465C29.449 27.761 29.612 28.1551 29.612 28.5741C29.613 28.9931 29.449 29.388 29.152 29.685Z" fill="#02509C"/>
<path d="M28.3339 28.8265C28.6558 28.5048 28.6559 27.983 28.3341 27.6611C28.0124 27.3393 27.4906 27.3392 27.1688 27.6609C26.8469 27.9826 26.8468 28.5044 27.1685 28.8263C27.4903 29.1482 28.012 29.1483 28.3339 28.8265Z" fill="#02509C"/>
<path d="M27.315 5.25806C27.09 5.03206 26.723 5.03206 26.498 5.25806L15.092 16.6641C14.867 16.8901 14.867 17.2561 15.092 17.4821C15.319 17.7071 15.685 17.7071 15.912 17.4821L27.315 6.07609C27.542 5.85109 27.542 5.48506 27.315 5.25806Z" fill="#02509C"/>
</svg>
