<svg width="30" height="31" viewBox="0 0 30 31" fill="none" xmlns="http://www.w3.org/2000/svg">
<path d="M10.5 26.4999C2.49998 31.9999 -0.500024 26.4999 2.99998 20.9999C6.02515 14.9499 13.6789 11.8902 14.5 4.49998C15 -2.07424e-05 17.5 2.99998 23.5 4.49998C29.5 5.99998 27 16.9999 23.5 16.4999C20 15.9999 18.5 20.9999 10.5 26.4999Z" fill="#E4ECF7"/>
<path d="M28.6443 13.1119L27.2853 11.7529C27.9813 10.4229 27.7723 8.73895 26.6563 7.62295L22.5982 3.56494C21.4822 2.45094 19.7983 2.23894 18.4673 2.93594L17.1083 1.57594C15.7573 0.226942 13.3902 0.228942 12.0422 1.57594L11.5263 2.09194C11.3293 2.28894 11.2192 2.55594 11.2192 2.83394C11.2192 3.11294 11.3303 3.37994 11.5263 3.57594L16.0292 8.07894L0.29325 23.8149C-0.09775 24.2059 -0.09775 24.8379 0.29325 25.2289L4.99125 29.9269C5.18625 30.1219 5.44225 30.2199 5.69825 30.2199C5.95425 30.2199 6.21025 30.1219 6.40525 29.9269L22.1422 14.1909L26.6443 18.6929C26.8493 18.8979 27.1173 18.9999 27.3863 18.9999C27.6543 18.9999 27.9232 18.8969 28.1282 18.6929L28.6443 18.1769C29.3183 17.5029 29.6903 16.6029 29.6903 15.6439C29.6903 14.6859 29.3183 13.7869 28.6443 13.1119ZM5.69825 27.8069L2.41425 24.5229L17.4432 9.49394L20.7282 12.7789L19.4493 14.0579L18.2393 12.8479C17.9463 12.5549 17.4713 12.5549 17.1783 12.8479C16.8853 13.1409 16.8853 13.6159 17.1783 13.9089L18.3883 15.1189L16.5663 16.9409L15.3563 15.7309C15.0633 15.4379 14.5883 15.4379 14.2953 15.7309C14.0023 16.0239 14.0023 16.4989 14.2953 16.7919L15.5053 18.0019L13.6833 19.8239L12.4732 18.6139C12.1802 18.3209 11.7053 18.3209 11.4123 18.6139C11.1193 18.9069 11.1193 19.3819 11.4123 19.6749L12.6223 20.8849L10.8003 22.7069L9.59025 21.4969C9.29725 21.2039 8.82224 21.2039 8.52924 21.4969C8.23624 21.7899 8.23624 22.2649 8.52924 22.5579L9.73926 23.7679L7.91724 25.5899L6.70725 24.3799C6.41425 24.0869 5.93925 24.0869 5.64625 24.3799C5.35325 24.6729 5.35325 25.1479 5.64625 25.4409L6.85627 26.6509L5.69825 27.8069ZM27.3612 16.4439L13.7763 2.85895C14.3373 2.50295 15.1443 2.57994 15.6253 3.05994L17.6133 5.04794C18.0233 5.45794 18.6873 5.45694 19.0973 5.04794C19.6523 4.49294 20.5593 4.49194 21.1153 5.04794L25.1733 9.10594C25.7283 9.66194 25.7283 10.5669 25.1733 11.1229C24.7633 11.5329 24.7633 12.1969 25.1733 12.6069L27.1613 14.5959C27.6613 15.0969 27.7282 15.8699 27.3612 16.4439Z" fill="#02509C"/>
</svg>
