<svg width="32" height="33" viewBox="0 0 32 33" fill="none" xmlns="http://www.w3.org/2000/svg">
<path d="M12.9442 27.4999C4.94419 32.9999 1.94419 27.4999 5.44419 21.9999C8.46936 15.9499 16.1231 12.8902 16.9442 5.49998C17.4442 0.999979 19.9442 3.99998 25.9442 5.49998C31.9442 6.99998 29.4442 17.9999 25.9442 17.4999C22.4442 16.9999 20.9442 21.9999 12.9442 27.4999Z" fill="#E4ECF7"/>
<path d="M29.2227 16.3532C26.6777 18.8982 22.9716 19.7202 19.6176 18.5342L17.1127 21.0392L16.8637 24.4942C16.8287 24.9902 16.4337 25.3852 15.9387 25.4192L12.9747 25.6322L12.7617 28.5962C12.7267 29.0922 12.3317 29.4872 11.8367 29.5212L8.38166 29.7702L5.95066 32.2012C5.71066 32.4412 5.36665 32.5422 5.03565 32.4722L1.53666 31.7282C1.15066 31.6462 0.848659 31.3432 0.765659 30.9572L0.0216712 27.4582C-0.0483288 27.1272 0.0536673 26.7832 0.292667 26.5432L13.9607 12.8752C12.7747 9.52017 13.5957 5.81519 16.1417 3.27019C19.7487 -0.336809 25.6167 -0.336809 29.2227 3.27019C32.8287 6.87719 32.8297 12.7472 29.2227 16.3532ZM15.4337 19.8892L18.6657 16.6572C18.9567 16.3662 19.3967 16.2832 19.7737 16.4482C22.5307 17.6552 25.6837 17.0632 27.8077 14.9402C30.6347 12.1132 30.6347 7.51418 27.8077 4.68718C24.9807 1.86018 20.3817 1.86018 17.5547 4.68718C15.4317 6.81018 14.8397 9.96418 16.0467 12.7212C16.2117 13.0992 16.1287 13.5382 15.8377 13.8292L2.09067 27.5762L2.35065 28.7942L2.58667 29.9092L4.91965 30.4052L7.23066 28.0942C7.40066 27.9242 7.62667 27.8212 7.86567 27.8042L10.8286 27.5912L11.0427 24.6272C11.0777 24.1312 11.4727 23.7362 11.9677 23.7022L14.9307 23.4892L15.1437 20.5262C15.1616 20.2852 15.2637 20.0592 15.4337 19.8892Z" fill="#02509C"/>
<path d="M26.7776 9.95917C25.9106 10.8262 24.2996 10.5742 23.1096 9.38415C21.9196 8.19415 21.6676 6.58315 22.5346 5.71615C23.4016 4.84915 25.0126 5.10117 26.2026 6.29117C27.3926 7.48117 27.6456 9.09216 26.7776 9.95917ZM23.2426 6.42416C22.7956 6.87116 23.0636 7.92516 23.8176 8.67816C24.5706 9.43116 25.6236 9.70017 26.0716 9.25317C26.5266 8.79817 26.2636 7.76614 25.4966 6.99914C24.7296 6.23214 23.6976 5.96816 23.2426 6.42416Z" fill="#02509C"/>
<path d="M14.4187 18.7832L4.51866 28.6822C4.32366 28.8772 4.00666 28.8772 3.81166 28.6822C3.61666 28.4872 3.61666 28.1702 3.81166 27.9752L13.7107 18.0752C13.9057 17.8802 14.2227 17.8802 14.4177 18.0752C14.6137 18.2722 14.6137 18.5882 14.4187 18.7832Z" fill="#02509C"/>
</svg>
