<svg width="32" height="32" viewBox="0 0 32 32" fill="none" xmlns="http://www.w3.org/2000/svg">
<path d="M16 0C9.924 0 5 4.924 5 11C5 15.031 8.688 19.303 10.031 23.055C12.034 28.65 11.812 32 16 32C20.25 32 19.965 28.666 21.969 23.078C23.316 19.318 27 15 27 11C27 4.924 22.074 0 16 0ZM18.592 27.176L13.634 27.795C13.457 27.283 13.267 26.684 13.036 25.902C13.033 25.892 13.029 25.881 13.027 25.871L19.215 25.098C19.127 25.393 19.033 25.703 18.951 25.981C18.82 26.43 18.703 26.82 18.592 27.176ZM12.736 24.908C12.554 24.306 12.349 23.672 12.121 23H19.887C19.764 23.359 19.641 23.719 19.535 24.059L12.736 24.908ZM16 30C14.987 30 14.521 29.883 14.003 28.75L18.241 28.219C17.627 29.873 17.18 30 16 30ZM20.672 21H11.339C10.841 19.92 10.243 18.84 9.653 17.783C8.348 15.448 7 13.033 7 11C7 6.037 11.037 2 16 2C20.963 2 25 6.037 25 11C25 13.018 23.65 15.446 22.344 17.795C21.76 18.848 21.166 19.926 20.672 21ZM16 5C16.275 5 16.5 5.224 16.5 5.5C16.5 5.776 16.276 6 16 6C13.243 6 11 8.243 11 11C11 11.276 10.776 11.5 10.5 11.5C10.224 11.5 10 11.276 10 11C10 7.691 12.691 5 16 5Z" fill="#55D585"/>
</svg>
