<svg width="102" height="167" viewBox="0 0 102 167" fill="none" xmlns="http://www.w3.org/2000/svg">
<path fill-rule="evenodd" clip-rule="evenodd" d="M35.4435 0.121456C37.5919 -0.124112 39.8849 -0.0374276 41.8829 0.755967C46.1314 2.44326 47.339 7.139 47.2808 10.9557C47.218 15.0637 46.2855 19.5507 49.6238 22.8606C51.1584 24.3823 53.0672 25.5469 54.5741 27.0965C56.1841 28.7525 57.4475 30.6473 58.3829 32.6821C60.1004 36.4195 60.9434 40.8146 59.3728 44.7351C57.9899 48.187 54.5108 51.3025 55.2626 55.2276C56.0467 59.3221 60.4592 62.4525 63.2178 65.5023C66.3399 68.9537 69.2144 73.3649 69.6867 77.8911C70.1395 82.2288 68.1213 86.6157 65.0241 89.8947C58.8358 96.4465 49.5339 99.6585 40.1547 99.6386C36.1725 99.6299 31.6639 99.4617 28.2274 97.4596C27.1653 96.8408 26.605 96.1465 25.9736 95.1814C25.4075 94.3159 24.6597 93.753 23.7941 93.1406C21.8924 91.7955 20.519 89.9827 19.6426 87.9534C16.2392 80.0716 18.9594 70.3208 23.7234 63.3217C24.8523 61.6634 25.7765 60.0677 25.2281 58.0912C24.6558 56.0279 23.2493 54.167 22.0052 52.3934C20.7759 50.6406 19.3724 48.9685 18.4116 47.0733C17.4052 45.088 17.1219 43.009 17.2997 40.8362C17.6339 36.7548 19.517 32.9884 22.1832 29.7061C24.7513 26.5445 27.7666 23.5193 27.7734 19.3766C27.7808 14.9859 24.6433 11.0801 25.9799 6.61613C26.5334 4.76768 27.645 2.87116 29.4364 1.76299C31.1544 0.700169 33.4229 0.35241 35.4435 0.121456Z" fill="#4EC87C"/>
<path fill-rule="evenodd" clip-rule="evenodd" d="M34.0396 7.1406C34.0799 6.55092 34.8276 6.19725 35.4161 6.35112C36.1909 6.55376 36.176 7.23101 36.1555 7.83438C36.0928 9.689 36.3797 11.4914 36.8562 13.2909C37.8466 17.0323 39.677 20.4793 41.1271 24.0732C42.576 27.6641 43.2561 31.3716 42.4062 35.1713C41.6049 38.7538 40.3461 42.2435 39.5261 45.8306C38.8033 48.9921 38.0342 52.3262 39.1349 55.4796C40.1941 58.5151 42.5357 60.9872 44.2218 63.7304C47.7124 69.4089 49.261 75.7086 49.4681 82.1915C49.5641 85.2019 49.4776 88.24 48.7312 91.1926C48.3015 92.8927 47.7241 95.1903 46.1669 96.364C45.4489 96.9053 44.2208 97.0925 43.6164 96.2909C43.049 95.5391 43.5468 94.3752 43.7269 93.5739C44.507 90.1052 44.6639 86.5602 44.4772 83.0381C44.2964 79.6264 43.8656 76.2205 42.7179 72.9622C41.6527 69.9384 40.0344 67.2225 38.1299 64.5774C36.1891 61.8818 34.1715 59.1805 33.3696 55.9866C32.5549 52.7426 33.2168 49.4418 34.1018 46.2598C35.0378 42.8942 36.2638 39.6251 37.5313 36.3506C38.7665 33.1599 39.2043 30.141 38.5224 26.8015C37.1754 20.2039 33.5699 14.0112 34.0396 7.1406Z" fill="#47B872"/>
<path fill-rule="evenodd" clip-rule="evenodd" d="M92.1693 8.12704C94.8279 8.88228 97.4684 10.1008 99.3636 12.0115C103.393 16.0748 102.157 22.2158 99.9324 26.7012C97.5378 31.5289 93.9092 36.3815 95.9547 41.9206C96.8949 44.4671 98.4759 46.7734 99.3677 49.3394C100.321 52.0815 100.732 54.9372 100.679 57.7988C100.582 63.0547 99.0882 68.6628 95.0311 72.5349C91.459 75.9441 85.6181 77.9353 84.2824 82.9431C82.8888 88.167 86.2957 94.0166 87.8083 98.9661C89.5203 104.567 90.3997 111.183 88.3964 116.766C86.4769 122.116 81.6314 126.322 76.1461 128.692C65.1864 133.429 52.4615 132.7 41.4719 128.112C36.8061 126.163 31.613 123.77 28.7134 119.73C27.8173 118.481 27.5523 117.387 27.357 115.938C27.182 114.639 26.6229 113.61 25.9536 112.464C24.483 109.948 23.8964 107.135 24.0148 104.309C24.4759 93.3313 33.1752 83.1237 42.7172 77.165C44.9781 75.7534 46.9636 74.316 47.437 71.7116C47.9315 68.9931 47.3331 66.1077 46.8759 63.4048C46.4243 60.7335 45.7229 58.0729 45.6666 55.364C45.6079 52.5263 46.4501 49.9297 47.8862 47.4467C50.5839 42.7825 54.9206 39.2449 59.9022 36.6608C64.7004 34.1716 69.9462 32.0615 72.2946 27.1656C74.7839 21.9766 73.3105 15.8305 77.4002 11.2018C79.0936 9.28517 81.4689 7.58333 84.1962 7.14468C86.8117 6.72394 89.6688 7.41674 92.1693 8.12704Z" fill="#55D585"/>
<path fill-rule="evenodd" clip-rule="evenodd" d="M86.7384 16.7076C87.1157 16.029 88.1879 15.9768 88.79 16.4476C89.5824 17.0675 89.1859 17.8622 88.8242 18.5667C87.7127 20.7323 87.0392 23.0074 86.5891 25.3722C85.6528 30.2885 85.8634 35.2682 85.5472 40.2353C85.2312 45.1982 83.9511 49.9222 80.8302 54.0051C77.8878 57.8548 74.4624 61.3701 71.4955 65.216C68.8806 68.6056 66.1149 72.1767 65.6367 76.4509C65.1759 80.565 66.5301 84.6408 66.9662 88.7161C67.8689 97.1525 66.1532 105.372 62.7663 113.151C61.1933 116.763 59.3915 120.319 56.8659 123.449C55.4118 125.252 53.4505 127.689 50.9726 128.316C49.8299 128.605 48.2891 128.224 48.0312 126.979C47.7885 125.81 49.0221 124.676 49.6813 123.815C52.5353 120.09 54.7032 115.969 56.4565 111.706C58.1549 107.577 59.5577 103.333 60.0397 98.9113C60.4868 94.8081 60.1149 90.7984 59.3686 86.732C58.6082 82.5881 57.7612 78.3998 58.6115 74.2242C59.4747 69.983 62.0964 66.3987 64.9126 63.0645C67.8911 59.5377 71.1547 56.2675 74.4698 53.0113C77.7002 49.8385 79.9021 46.478 80.9742 42.1889C83.0924 33.7152 82.343 24.6137 86.7384 16.7076Z" fill="#4EC87C"/>
<path fill-rule="evenodd" clip-rule="evenodd" d="M9.97948 39.2941C14.4002 39.2941 18.2867 41.4864 20.9648 44.5974C24.0997 48.2392 24.7329 52.6866 26.0059 57.027C26.6393 59.187 27.7288 61.3313 29.638 62.7988C31.3746 64.1335 33.5791 64.4005 35.6576 65.0526C39.8117 66.3558 43.166 69.4949 44.4907 73.3253C46.1068 77.9976 44.3951 82.7095 44.6898 87.4445C44.9604 91.793 49.5432 94.506 53.2304 96.5906C56.8661 98.6462 60.1415 100.57 61.2365 104.575C62.3977 108.822 62.7873 113.563 61.1789 117.758C58.5012 124.744 50.6644 127.82 43.092 128.297C36.2199 128.73 27.5789 128.05 22.418 123.383C19.3298 120.591 18.2114 116.685 18.3501 112.799C18.4363 110.382 18.948 107.988 19.6095 105.653C20.0783 103.998 20.7118 102.35 20.8922 100.64C21.3719 96.0897 16.8769 95.2158 13.0507 93.9665C8.18873 92.3788 4.7849 89.3799 2.41799 85.2019C0.213752 81.3118 -0.711101 76.945 0.610276 72.662C1.28515 70.4751 2.5092 68.4909 4.16926 66.8033C4.90002 66.0605 5.92999 65.4409 6.58956 64.6605C7.2052 63.9317 7.07117 62.9874 6.85901 62.1338C5.87799 58.1908 2.82147 54.9259 1.72839 50.9901C0.741524 47.4374 1.32491 43.016 4.79658 40.7241C6.29648 39.7338 8.14618 39.3051 9.97948 39.2941Z" fill="#55D585"/>
<path fill-rule="evenodd" clip-rule="evenodd" d="M16.0033 49.5677C20.6888 54.2372 21.9623 60.5726 22.3361 66.7131C22.5455 70.1564 22.3275 73.7883 23.4089 77.1282C24.334 79.9868 26.503 82.1719 28.7387 84.2372C33.2391 88.3945 38.2581 92.6211 39.5744 98.6378C40.3468 102.169 39.8254 105.816 40.8927 109.308C41.8631 112.482 43.5717 115.601 45.6499 118.281C47.3232 120.44 49.5031 122.092 51.3323 124.104C51.8903 124.719 52.6897 125.623 52.4594 126.49C52.1899 127.505 50.8073 127.827 49.8264 127.667C47.5394 127.295 45.6143 125.252 44.1189 123.767C41.9323 121.595 40.0742 119.259 38.564 116.638C36.8874 113.728 35.5374 110.64 34.9607 107.375C34.3621 103.988 34.66 100.458 33.2932 97.2074C30.9932 91.7377 25.4145 88.5099 21.3811 84.2468C16.3558 78.9347 17.1053 72.3233 17.62 65.7889C17.9027 62.1979 18.1838 58.1427 16.2444 54.8641C15.504 53.6125 13.8533 52.4456 13.535 51.0231C13.2434 49.7197 14.8348 48.4026 16.0033 49.5677Z" fill="#4EC87C"/>
<path fill-rule="evenodd" clip-rule="evenodd" d="M21 126.303C21.0003 153.007 25.6584 167 50.2501 167C74.8417 167 79.4999 153.007 79.5 126.303H21Z" fill="#02509C"/>
</svg>
