<svg width="445" height="21" viewBox="0 0 445 21" fill="none" xmlns="http://www.w3.org/2000/svg">
<path fill-rule="evenodd" clip-rule="evenodd" d="M328.6 19.0447C328.53 18.8536 328.351 18.723 328.148 18.7179C303.18 18.0925 277.049 15.7292 251.456 11.9679C251.173 11.9264 250.916 12.1346 250.89 12.4189V12.4189C250.866 12.6816 251.049 12.9188 251.31 12.9572C276.94 16.724 303.112 19.0912 328.124 19.7176C328.475 19.7264 328.72 19.3741 328.6 19.0447V19.0447ZM386.504 16.5385C386.302 16.5613 386.135 16.7068 386.081 16.9029V16.9029C385.989 17.2416 386.266 17.5717 386.615 17.5324C408.811 15.032 428.405 10.4619 443.627 3.45976L442.517 6.5707C442.425 6.8308 442.56 7.11684 442.82 7.2096C443.081 7.30237 443.367 7.16671 443.459 6.90662L444.971 2.66811C445.064 2.40801 444.928 2.12197 444.668 2.02921L440.429 0.517569C440.169 0.424807 439.883 0.560459 439.791 0.820555C439.698 1.08065 439.833 1.3667 440.094 1.45946L443.185 2.56215C428.087 9.50253 408.613 14.0479 386.504 16.5385ZM123.586 1.48202C123.479 1.16733 123.701 0.833691 124.033 0.820091C146.409 -0.0957407 169.553 0.206703 191.505 2.42148C191.811 2.45235 192.013 2.75372 191.931 3.05031V3.05031C191.867 3.28439 191.645 3.44059 191.404 3.41623C169.51 1.20745 146.415 0.904915 124.075 1.81923C123.856 1.82821 123.658 1.68981 123.586 1.48202V1.48202ZM64.793 7.03746C65.0154 7.00746 65.1893 6.82956 65.2181 6.60705V6.60705C65.2601 6.2825 64.9843 6.00259 64.66 6.04634C53.0396 7.61396 42.3673 9.38957 33.0752 11.2205C17.8067 14.229 6.2269 17.3939 0.29602 20.0441C0.0439025 20.1567 -0.0691531 20.4524 0.0435033 20.7046C0.15616 20.9567 0.451867 21.0697 0.703984 20.9571C6.52311 18.3569 18.0058 15.209 33.2685 12.2016C42.5398 10.3748 53.192 8.60247 64.793 7.03746Z" fill="#178ACB" fill-opacity="0.4"/>
</svg>
