<svg width="329" height="21" viewBox="0 0 329 21" fill="none" xmlns="http://www.w3.org/2000/svg">
<path fill-rule="evenodd" clip-rule="evenodd" d="M328.6 18.709C328.53 18.5179 328.351 18.3873 328.148 18.3822C303.18 17.7568 277.049 15.3936 251.456 11.6322C251.173 11.5907 250.916 11.7989 250.89 12.0832V12.0832C250.866 12.3459 251.049 12.5831 251.31 12.6215C276.94 16.3883 303.112 18.7555 328.124 19.382C328.475 19.3907 328.72 19.0384 328.6 18.709V18.709ZM123.586 1.14633C123.479 0.831635 123.701 0.497998 124.033 0.484398C146.409 -0.431434 169.553 -0.12899 191.505 2.08579C191.811 2.11665 192.013 2.41803 191.931 2.71461V2.71461C191.867 2.9487 191.645 3.1049 191.404 3.08054C169.51 0.871757 146.415 0.569222 124.075 1.48354C123.856 1.49252 123.658 1.35412 123.586 1.14633V1.14633ZM64.793 6.70177C65.0154 6.67177 65.1893 6.49386 65.2181 6.27136V6.27136C65.2601 5.94681 64.9843 5.6669 64.66 5.71065C53.0396 7.27826 42.3673 9.05388 33.0752 10.8848C17.8067 13.8933 6.2269 17.0582 0.29602 19.7084C0.0439025 19.821 -0.0691531 20.1168 0.0435033 20.3689C0.15616 20.621 0.451867 20.734 0.703984 20.6214C6.52311 18.0212 18.0058 14.8733 33.2685 11.8659C42.5398 10.0391 53.192 8.26678 64.793 6.70177Z" fill="#178ACB" fill-opacity="0.4"/>
</svg>
