<svg width="583" height="327" viewBox="0 0 583 327" fill="none" xmlns="http://www.w3.org/2000/svg">
<path d="M431.668 16.3406C431.395 16.3771 431.202 16.6286 431.239 16.9024C431.275 17.1761 431.527 17.3684 431.801 17.3319L431.668 16.3406ZM579.626 68.6434L579.154 68.4778L579.626 68.6434ZM3.67989 127.384C3.89203 127.561 4.20731 127.532 4.3841 127.32L7.26493 123.863C7.44171 123.651 7.41305 123.336 7.20091 123.159C6.98877 122.982 6.67349 123.011 6.49671 123.223L3.93597 126.296L0.863083 123.735C0.650944 123.558 0.335662 123.587 0.15888 123.799C-0.0179019 124.011 0.0107601 124.326 0.222898 124.503L3.67989 127.384ZM431.801 17.3319C458.222 13.8074 499.225 15.096 531.561 23.0847C547.735 27.0806 561.678 32.7383 570.55 40.2587C574.98 44.0142 578.126 48.2178 579.67 52.8926C581.211 57.5608 581.168 62.7396 579.154 68.4778L580.097 68.8091C582.177 62.8864 582.237 57.4798 580.619 52.579C579.003 47.6848 575.726 43.3358 571.197 39.496C562.149 31.8259 548.026 26.1223 531.801 22.1139C499.337 14.0936 458.208 12.8005 431.668 16.3406L431.801 17.3319ZM579.154 68.4778C575.132 79.9341 563.149 88.3384 545.025 94.357C526.924 100.368 502.832 103.954 474.821 105.871C418.805 109.706 347.251 106.863 276.906 103.502C206.579 100.142 137.456 96.265 86.3562 98.0432C60.8124 98.932 39.7252 101.235 25.2297 105.742C17.9835 107.995 12.3378 110.812 8.60799 114.318C4.85911 117.842 3.04901 122.062 3.50204 127.045L4.49793 126.955C4.07597 122.313 5.74094 118.385 9.29289 115.047C12.8639 111.69 18.3448 108.929 25.5266 106.697C39.8872 102.232 60.8618 99.9309 86.391 99.0425C137.438 97.2663 206.505 101.14 276.858 104.501C347.192 107.861 418.805 110.708 474.89 106.869C502.929 104.949 527.12 101.357 545.34 95.3061C563.538 89.2631 575.915 80.7227 580.097 68.8091L579.154 68.4778Z" fill="#178ACB" fill-opacity="0.4"/>
<path d="M437.912 157.508C437.64 157.556 437.459 157.816 437.508 158.088C437.557 158.36 437.816 158.541 438.088 158.492L437.912 157.508ZM579.626 214.663L579.154 214.498L579.626 214.663ZM14.693 277.395C14.911 277.564 15.2251 277.525 15.3947 277.307L18.1574 273.755C18.3269 273.537 18.2877 273.223 18.0697 273.053C17.8517 272.884 17.5376 272.923 17.3681 273.141L14.9123 276.298L11.7549 273.842C11.5369 273.673 11.2228 273.712 11.0532 273.93C10.8837 274.148 10.923 274.462 11.141 274.632L14.693 277.395ZM438.088 158.492C471.513 152.506 510.927 155.008 539.918 164.814C554.417 169.718 566.255 176.431 573.448 184.771C580.616 193.083 583.183 203.019 579.154 214.498L580.097 214.829C584.255 202.986 581.588 192.678 574.205 184.118C566.847 175.586 554.818 168.798 540.238 163.867C511.073 154.002 471.487 151.494 437.912 157.508L438.088 158.492ZM579.154 214.498C575.132 225.954 563.259 234.248 545.336 240.096C527.435 245.937 503.632 249.291 475.981 250.966C420.684 254.315 350.13 250.938 280.907 247.387C211.705 243.837 143.828 240.113 93.9407 242.781C69.0042 244.115 48.5084 247.047 34.5771 252.423C27.6101 255.112 22.2412 258.428 18.7864 262.501C15.317 266.592 13.7989 271.422 14.5039 277.062L15.4961 276.938C14.8261 271.578 16.2596 267.026 19.549 263.148C22.8531 259.253 28.0503 256.014 34.9371 253.356C48.7133 248.04 69.0762 245.112 93.994 243.78C143.816 241.115 211.629 244.835 280.856 248.386C350.063 251.936 420.677 255.317 476.042 251.964C503.722 250.288 527.624 246.927 545.646 241.047C563.647 235.174 575.915 226.743 580.097 214.829L579.154 214.498Z" fill="#178ACB" fill-opacity="0.4"/>
<path fill-rule="evenodd" clip-rule="evenodd" d="M238.305 29.5375C238.114 29.4993 237.919 29.577 237.805 29.735C237.594 30.0283 237.751 30.4463 238.105 30.5172C260.46 34.9895 284.149 34.7926 305.116 33.0947C320.294 31.8657 334.065 29.8481 344.889 28.2359L346.012 28.0686C350.952 27.3323 355.237 26.6937 358.723 26.2708C361.639 25.917 363.962 25.7191 365.627 25.7342L363.137 27.7222C362.921 27.8944 362.886 28.209 363.058 28.4249C363.23 28.6407 363.545 28.676 363.761 28.5037L367.278 25.6964C367.493 25.5241 367.529 25.2095 367.357 24.9937L364.549 21.4767C364.377 21.2609 364.062 21.2256 363.847 21.3979C363.631 21.5702 363.595 21.8848 363.768 22.1006L365.873 24.7381C364.096 24.7 361.63 24.9108 358.602 25.2781C355.103 25.7027 350.805 26.3433 345.871 27.0786L344.742 27.2468C333.918 28.8588 320.177 30.8719 305.036 32.098C284.096 33.7936 260.516 33.9805 238.305 29.5375ZM173.86 7.36245C173.928 7.10225 173.779 6.83265 173.521 6.75744C158.62 2.41967 144.479 0.206686 130.228 0.196932C104.999 0.179664 79.4696 7.06687 48.808 21.2165C48.5573 21.3322 48.4478 21.6293 48.5635 21.88C48.6792 22.1308 48.9763 22.2402 49.227 22.1245C79.8102 8.01101 105.192 1.1798 130.227 1.19693C144.368 1.20661 158.414 3.40135 173.239 7.71687C173.507 7.79516 173.788 7.63335 173.86 7.36245Z" fill="#178ACB" fill-opacity="0.4"/>
<path fill-rule="evenodd" clip-rule="evenodd" d="M243.695 172.511C243.494 172.477 243.294 172.571 243.189 172.745C243.008 173.046 243.182 173.439 243.528 173.496C264.278 176.949 285.886 176.658 305.187 175.095C320.365 173.866 334.135 171.848 344.96 170.236L346.083 170.069C351.023 169.332 355.308 168.694 358.793 168.271C361.71 167.917 364.033 167.719 365.698 167.734L363.208 169.722C362.992 169.894 362.957 170.209 363.129 170.425C363.301 170.641 363.616 170.676 363.832 170.504L367.349 167.696C367.564 167.524 367.6 167.21 367.427 166.994L364.62 163.477C364.448 163.261 364.133 163.226 363.917 163.398C363.702 163.57 363.666 163.885 363.839 164.101L365.944 166.738C364.167 166.7 361.7 166.911 358.673 167.278C355.173 167.703 350.875 168.343 345.942 169.079L344.813 169.247C333.989 170.859 320.248 172.872 305.106 174.098C285.831 175.659 264.318 175.941 243.695 172.511ZM178.409 150.756C178.496 150.493 178.354 150.207 178.089 150.124C161.52 144.885 145.977 142.208 130.299 142.197C105.07 142.18 79.5404 149.067 48.8788 163.217C48.6281 163.332 48.5186 163.629 48.6343 163.88C48.75 164.131 49.0471 164.24 49.2978 164.125C79.881 150.011 105.263 143.18 130.298 143.197C145.855 143.208 161.296 145.863 177.786 151.077C178.045 151.159 178.323 151.015 178.409 150.756Z" fill="#178ACB" fill-opacity="0.4"/>
<path fill-rule="evenodd" clip-rule="evenodd" d="M240.645 321.825C240.478 321.79 240.306 321.845 240.188 321.969C239.919 322.251 240.059 322.725 240.441 322.803C263.01 327.429 286.99 327.246 308.187 325.53C323.365 324.301 337.135 322.283 347.96 320.671L349.083 320.504C354.023 319.767 358.308 319.129 361.793 318.706C364.71 318.352 367.033 318.154 368.698 318.169L366.208 320.157C365.992 320.329 365.957 320.644 366.129 320.86C366.301 321.076 366.616 321.111 366.832 320.939L370.349 318.131C370.564 317.959 370.6 317.644 370.427 317.429L367.62 313.912C367.448 313.696 367.133 313.661 366.917 313.833C366.702 314.005 366.666 314.32 366.839 314.536L368.944 317.173C367.167 317.135 364.7 317.346 361.673 317.713C358.173 318.138 353.875 318.778 348.942 319.514L347.813 319.682C336.989 321.294 323.248 323.307 308.106 324.533C286.938 326.247 263.069 326.419 240.645 321.825ZM178.232 300.104C178.258 299.866 178.112 299.642 177.883 299.573C162.506 294.984 147.961 292.642 133.299 292.632C108.07 292.615 82.5404 299.502 51.8788 313.651C51.6281 313.767 51.5186 314.064 51.6343 314.315C51.75 314.566 52.0471 314.675 52.2978 314.559C82.881 300.446 108.263 293.615 133.298 293.632C147.847 293.642 162.295 295.965 177.594 300.53C177.892 300.619 178.197 300.413 178.232 300.104Z" fill="#178ACB" fill-opacity="0.4"/>
</svg>
