<svg width="22" height="22" viewBox="0 0 22 22" fill="none" xmlns="http://www.w3.org/2000/svg">
<path d="M14.244 14.6549L14.2439 14.6549L14.0762 14.8285L14.0601 14.8451L14.0371 14.8436C13.9146 14.8358 13.6025 14.7684 12.9874 14.3721C12.3717 13.9754 11.4492 13.247 10.1051 11.9119L10.1051 11.9118C8.74409 10.5586 8.00742 9.63301 7.6091 9.01917C7.21114 8.40588 7.1488 8.1005 7.14179 7.98822L7.1404 7.96589L7.15612 7.94997L7.32679 7.77713L7.3269 7.77703C8.08302 7.01578 8.68776 6.29281 8.79716 5.37743C8.90641 4.46342 8.52291 3.34261 7.26097 1.78426L7.26094 1.78422C6.3101 0.607076 5.35852 0.0463858 4.3521 0.0500176L4.35208 0.0500176C2.98474 0.0543873 2.00538 1.10443 1.20373 1.96708L1.20369 1.96712L1.19089 1.98087C1.0711 2.10951 0.953609 2.23569 0.839494 2.35291L0.839379 2.35303C0.332098 2.87066 0.0665217 3.64031 0.0507463 4.60366C0.0349721 5.56695 0.269208 6.71982 0.756946 7.99693C1.74774 10.5894 3.68018 13.3993 6.20065 15.905L6.1654 15.9405L6.20065 15.905C10.7063 20.3849 15.0253 21.9573 17.3463 21.95C18.3742 21.9463 19.1901 21.6573 19.7141 21.1224C19.7142 21.1224 19.7142 21.1224 19.7142 21.1223L14.244 14.6549ZM14.244 14.6549C14.9429 13.9294 15.7183 13.128 16.928 13.1243C17.8531 13.1214 18.8872 13.597 20.1888 14.637M14.244 14.6549L20.1888 14.637M2.43729 7.34426L2.43729 7.34425C2.03303 6.28561 1.87199 5.44391 1.85181 4.82515C1.84173 4.51581 1.86681 4.26122 1.91491 4.06266C1.96276 3.86511 2.03443 3.71883 2.12094 3.63077L2.15661 3.66581M2.43729 7.34426L5.83027 6.71835L6.05374 6.49156L6.05388 6.49142L6.05567 6.48962C6.32524 6.21819 6.55389 5.98796 6.71739 5.7649C6.88211 5.54017 6.9837 5.31887 6.99509 5.06451C7.00645 4.81097 6.92788 4.53132 6.7457 4.19C6.56358 3.84879 6.27593 3.44233 5.86436 2.93412C5.66978 2.69318 5.42843 2.42785 5.16993 2.2225C4.91279 2.01824 4.63136 1.86743 4.35766 1.86822L4.35761 1.86822C4.05283 1.8694 3.73448 2.05624 3.42601 2.3112C3.11625 2.56723 2.80665 2.90048 2.51913 3.20997L2.51812 3.21106C2.5181 3.21108 2.51808 3.2111 2.51807 3.21112C2.50044 3.22994 2.48289 3.24871 2.46541 3.2674C2.34771 3.39324 2.23314 3.51572 2.12081 3.6309L2.15661 3.66581M2.43729 7.34426C3.33948 9.70545 5.12532 12.2859 7.46469 14.6119L7.49994 14.5764M2.43729 7.34426L2.55462 3.24523C2.53699 3.26406 2.51942 3.28285 2.50191 3.30156C2.38426 3.42735 2.26932 3.55024 2.15661 3.66581M2.15661 3.66581C1.84615 3.9818 1.67842 5.21684 2.484 7.32641C3.38301 9.67929 5.16412 12.254 7.49994 14.5764M7.49994 14.5764L7.46469 14.6119C9.38625 16.5222 11.3168 17.9038 13.0352 18.8073C14.7525 19.7102 16.2615 20.1374 17.3392 20.134C18.084 20.1317 18.3568 19.9228 18.4306 19.8467C18.5459 19.7285 18.6693 19.6079 18.7968 19.4834C18.812 19.4686 18.8272 19.4537 18.8425 19.4388C19.1505 19.1394 19.4821 18.8169 19.733 18.4955C19.9825 18.1758 20.1606 17.8469 20.1457 17.5351L20.1457 17.5351C20.1324 17.2641 19.977 16.9881 19.7724 16.7366C19.5667 16.4838 19.3058 16.2493 19.0705 16.0609L19.0705 16.0609C17.9193 15.1417 17.2781 14.941 16.9343 14.9418L16.9343 14.9418M7.49994 14.5764L16.9343 14.9418M16.9343 14.9418C16.7122 14.9426 16.5093 15.0371 16.2902 15.2045M16.9343 14.9418L16.2902 15.2045M20.1888 14.637C21.3284 15.5483 21.8978 16.4666 21.9468 17.4458L20.1888 14.637ZM5.33992 7.97218C5.34494 8.78227 5.73542 10.1197 8.84032 13.2073C11.9401 16.2859 13.2686 16.6641 14.0695 16.6627L5.33992 7.97218ZM5.33992 7.97218C5.33706 7.48084 5.50688 7.04731 5.83023 6.71839L5.33992 7.97218ZM15.3125 16.1519L15.536 15.9221L15.3125 16.1519ZM15.3125 16.1519C15.3125 16.1519 15.3125 16.1519 15.3125 16.1519M15.3125 16.1519L15.3125 16.1519M15.3125 16.1519C14.9891 16.4837 14.5593 16.6612 14.0696 16.6627L15.3125 16.1519ZM16.2902 15.2045C16.0718 15.3715 15.8319 15.6152 15.5361 15.922L16.2902 15.2045Z" fill="#1C1C1C" stroke="#EFF1F9" stroke-width="0.1"/>
</svg>
