<svg width="32" height="32" viewBox="0 0 32 32" fill="none" xmlns="http://www.w3.org/2000/svg">
<g clip-path="url(#clip0)">
<path d="M31.415 10.586L21.415 0.585997C20.919 0.0899967 20.2 -0.109003 19.519 0.0589967C19.16 0.146997 18.839 0.331997 18.585 0.585997C18.358 0.812997 18.187 1.094 18.089 1.408C17.636 2.877 16.853 4.154 15.694 5.312C14.146 6.859 12.13 8.031 9.99701 9.27C7.73301 10.582 5.39401 11.942 3.47701 13.858C1.84801 15.489 0.739014 17.303 0.0890144 19.409C-0.129986 20.12 0.0610144 20.889 0.585014 21.415L10.585 31.415C11.081 31.911 11.8 32.11 12.481 31.942C12.84 31.852 13.161 31.669 13.415 31.415C13.642 31.188 13.813 30.907 13.911 30.591C14.365 29.122 15.148 27.845 16.308 26.687C17.855 25.14 19.87 23.97 22.005 22.732C24.267 21.418 26.607 20.058 28.523 18.142C30.152 16.513 31.261 14.697 31.912 12.591C32.13 11.881 31.938 11.109 31.415 10.586ZM12 30C8.68801 26.688 5.31201 23.311 2.00001 20C4.84201 10.799 17.16 11.201 20 2C23.312 5.311 26.689 8.688 30.002 12C27.159 21.199 14.841 20.799 12 30ZM14.717 22.18C14.914 22.021 15.204 22.029 15.385 22.213C15.581 22.408 15.581 22.727 15.385 22.922C15.369 22.938 15.352 22.949 15.334 22.963L15.336 22.965C14.703 23.446 14.183 23.879 13.622 24.44C13.115 24.946 12.657 25.479 12.261 26.02L11.622 26.895C11.602 26.931 11.578 26.964 11.548 26.995C11.352 27.19 11.033 27.19 10.838 26.995C10.668 26.825 10.647 26.563 10.772 26.368L10.77 26.366L11.454 25.432C11.881 24.848 12.372 24.276 12.915 23.733C13.48 23.166 14.09 22.66 14.715 22.18H14.717ZM18.378 7.715C18.884 7.209 19.341 6.678 19.738 6.134L20.402 5.224C20.426 5.181 20.453 5.138 20.49 5.101C20.687 4.904 21.006 4.904 21.203 5.101C21.39 5.289 21.398 5.586 21.228 5.785L21.23 5.787L20.546 6.725C20.118 7.309 19.628 7.879 19.085 8.422C18.52 8.987 17.911 9.495 17.286 9.975L17.282 9.973C17.083 10.156 16.774 10.152 16.583 9.959C16.386 9.762 16.386 9.441 16.583 9.244C16.618 9.207 16.659 9.181 16.7 9.158C17.288 8.709 17.855 8.238 18.378 7.715Z" fill="#55D585"/>
<path d="M16.9748 17.1356L17.0736 17.2485L17.1864 17.1497L18.3625 16.1201C18.5692 15.9392 18.8834 15.9601 19.0644 16.1668C19.2453 16.3735 19.2244 16.6877 19.0177 16.8687L17.8409 17.8989L17.728 17.9977L17.8268 18.1106L18.3259 18.6806C18.5546 18.9419 18.5282 19.3392 18.2669 19.5679C18.0056 19.7967 17.6084 19.7703 17.3797 19.509L16.8813 18.9397L16.7825 18.8268L16.6696 18.9256L16.4064 19.156C16.1997 19.337 15.8855 19.3161 15.7045 19.1094C15.5236 18.9027 15.5445 18.5885 15.7512 18.4075L16.0144 18.1771L16.1272 18.0783L16.0284 17.9654L15.4286 17.2802L15.3298 17.1673L15.2169 17.2661L14.954 17.4963C14.7471 17.6774 14.4327 17.6565 14.2516 17.4497C14.0706 17.243 14.0914 16.9288 14.2978 16.7476L14.5603 16.5174L14.6729 16.4186L14.5742 16.3059L11.9969 13.3617C12.7239 12.6166 13.5809 11.8301 14.4724 11.4608C14.9344 11.2693 15.3975 11.1936 15.8528 11.2877C16.307 11.3815 16.7701 11.6477 17.2271 12.1697C17.8992 12.9375 18.0194 13.6479 17.8247 14.3073C17.6256 14.9812 17.0905 15.626 16.3984 16.2319L16.3897 16.2395L16.2768 16.3383L16.3756 16.4512L16.9748 17.1356ZM13.6744 13.1619L13.5829 13.261L13.6717 13.3625L15.5227 15.4769L15.6187 15.5865L15.7311 15.4938C16.1109 15.1805 16.4799 14.8064 16.6442 14.3791C16.7276 14.1619 16.7588 13.9295 16.7107 13.6863C16.6628 13.4438 16.538 13.2009 16.3259 12.9586C15.9187 12.4934 15.4182 12.3557 14.9343 12.4354C14.4589 12.5137 14.0093 12.7992 13.6744 13.1619Z" fill="#55D585" stroke="#E4ECF7" stroke-width="0.3"/>
</g>
<defs>
<clipPath id="clip0">
<rect width="32" height="32" fill="white"/>
</clipPath>
</defs>
</svg>
