<svg width="238" height="322" viewBox="0 0 238 322" fill="none" xmlns="http://www.w3.org/2000/svg">
<path fill-rule="evenodd" clip-rule="evenodd" d="M71.9926 83.216C81.8389 82.7052 94.016 88.4525 95.0665 99.1554C95.8296 106.932 95.5933 114.686 96.7742 122.451C97.7185 128.657 99.7157 134.614 102.44 140.267C105.059 145.703 110.492 150.33 111.905 156.137C112.806 159.838 112.301 165.043 111.059 168.662C109.549 173.063 110.352 172.715 113.361 176.407C119.259 183.643 124.57 191.064 128.325 199.706C133.734 212.154 137.281 226.705 135.273 240.331C135.018 242.061 134.715 248.271 132.332 248.705C129.671 249.19 130.915 245.639 131.058 244.492C131.963 237.172 132.767 230.774 131.675 223.34C127.461 194.657 106.884 175.758 93.4857 151.414C92.7492 150.159 91.1943 147.17 90.1131 145.198C88.4063 142.084 86.6903 136.159 84.3797 133.851C80.028 129.501 84.0288 138.245 84.8767 139.914C85.9488 142.026 87.1283 144.27 88.2269 146.12C93.2538 154.697 98.8648 164.058 104.056 172.899C81.6028 178.015 65.7894 151.021 59.7639 133.274C54.7993 118.653 48.8593 84.4671 71.9926 83.216Z" fill="#34B865"/>
<path fill-rule="evenodd" clip-rule="evenodd" d="M203.963 56.0633C187.503 57.3693 176.936 68.2306 172.017 83.422C169.365 91.6088 169.062 100.019 167.588 108.432C165.372 121.09 160.604 130.682 151.284 139.7C148.398 142.493 146.271 145.361 144.758 148.429C141.757 151.492 139.144 154.958 137.224 159.196C134.772 164.608 134.078 171.102 136.909 176.497C137.671 177.948 139.57 180.86 141.538 182.183C134.169 197.876 130.117 215.064 130.574 232.23C130.85 242.592 131.356 252.958 131.946 263.308C132.105 266.087 133.01 270.676 134.369 266.015C135.613 261.752 134.053 255.06 133.909 250.607C133.206 228.912 132.606 209.187 141.537 188.918C142.473 186.793 143.466 184.686 144.5 182.595C144.561 182.56 144.617 182.518 144.674 182.476C144.714 182.507 144.749 182.54 144.789 182.569C144.855 182.452 144.945 182.311 145.051 182.155C145.347 181.849 145.606 181.462 145.853 181.03C146.645 179.933 147.541 178.643 147.546 177.937C147.546 177.931 147.543 177.923 147.543 177.917C153.072 168.893 159.404 160.365 165.872 152.005C165.823 152.066 172.888 142.447 171.795 147.766C171.269 150.33 166.073 155.211 163.974 157.926C159.332 163.967 153.88 171.621 149.35 179.022C148.74 179.372 147.879 181.092 147.256 182.373C146.912 183.022 146.591 183.677 146.276 184.247C162.328 189.55 174.815 178.868 183.329 166.442C183.339 166.428 183.348 166.413 183.358 166.398C185.949 162.965 188.603 159.555 191.919 156.841C197.451 152.313 203.376 151.514 209.899 149.285C227.686 143.207 235.249 120.155 237.651 103.049C240.361 83.7517 227.105 54.1605 203.963 56.0633Z" fill="#34B865"/>
<path fill-rule="evenodd" clip-rule="evenodd" d="M171.448 2.02245C154.555 19.6048 146.393 43.9918 139.931 66.918C132.713 92.5243 127.945 118.526 127.762 145.148C127.642 162.64 127.166 180.24 128.187 197.711C128.55 203.916 129.168 210.131 130.152 216.269C130.233 216.774 132.433 230.479 134.538 227.285C135.736 225.469 132.283 213.068 132.022 211.003C130.554 199.369 130.213 187.65 130.285 175.932C130.402 156.639 129.834 137.445 131.789 118.223C132.081 115.354 132.311 112.339 132.993 109.532C133.717 106.547 132.795 107.85 135.152 106.668C137.443 105.519 140.274 105.683 142.651 104.242C152.079 98.5253 156.902 83.8403 160.656 74.2049C164.949 63.1864 167.558 51.4368 169.643 39.8413C171.173 31.3219 172.267 22.8542 172.886 14.2251C173.081 11.5055 173.093 8.6615 173.627 5.98739C173.771 5.26605 174.494 3.99002 174.468 3.35122C174.412 1.99925 173.596 1.20414 173.529 0.068112C172.822 0.704531 172.128 1.35645 171.448 2.02245Z" fill="#55D585"/>
<path fill-rule="evenodd" clip-rule="evenodd" d="M85.5696 30.7472C83.0083 27.7306 77.8611 27.7346 77.8344 32.7828C77.8064 38.1889 84.954 41.3328 89.0434 42.9859C88.6472 42.7901 89.1462 38.0364 88.972 37.2106C88.4583 34.7746 87.1434 32.6034 85.5696 30.7472ZM87.8084 128.853C88.3276 129.91 87.8469 128.948 87.8084 128.853V128.853ZM73.5323 50.0719C70.9996 50.7082 69.8016 53.241 70.6088 55.652C71.5702 58.5224 74.9873 59.9039 77.6007 60.7896C78.7829 61.1901 85.0956 63.3285 84.079 61.7072C84.1722 61.7971 84.3607 61.9991 84.5497 62.2448C84.473 62.7914 84.4037 63.3392 84.3414 63.8873C84.2964 63.8928 84.2562 63.9022 84.2088 63.9065C84.2582 63.9062 84.2958 63.8991 84.3404 63.8964C83.7207 69.3766 83.8221 74.8924 84.6981 80.3888C83.8482 79.5453 82.9196 78.784 81.903 78.1854C78.8928 76.4123 71.1307 76.0033 72.867 81.775C74.5322 87.3084 81.7247 85.2373 85.8586 86.3043C87.3591 93.1684 89.3391 99.9798 91.5903 106.709C91.2883 106.678 90.98 106.751 90.7297 106.964C89.3679 105.33 88.0967 103.283 86.6316 102.247C84.517 100.752 79.8744 98.3988 77.2191 99.7245C73.9535 101.354 75.3767 104.433 77.7209 106.024C81.1199 108.332 86.7502 108.609 90.8425 108.921C91.2193 109.169 91.7159 109.241 92.1224 109.029C92.2123 109.037 92.302 109.046 92.3893 109.054C94.7057 115.783 97.2592 122.425 99.829 128.953C99.7817 128.929 99.7347 128.906 99.6854 128.881C98.8358 127.595 97.8401 126.411 96.6073 125.485C93.7571 123.338 90.0122 121.722 86.4363 122.913C82.8747 124.099 80.2357 127.719 81.7897 131.441C84.9 138.893 97.8147 130.516 100.715 131.183C103.347 137.767 106.374 144.164 109.515 150.506C109.027 150.093 108.504 149.719 107.932 149.405C103.275 146.849 89.3095 147.896 92.7486 156.322C95.7455 163.664 105.989 156.425 111.655 154.79C114.633 160.724 117.649 166.642 120.468 172.655C118.264 170.923 115.902 169.791 112.888 169.448C109.768 169.095 104.418 169.262 104.559 173.739C104.702 178.292 110.792 178.87 114.095 178.866C115.896 178.864 119.895 177.96 122.971 178.179C127.292 188.185 130.338 198.468 131.273 209.44C131.856 216.29 131.557 223.211 130.517 230.01C129.853 234.349 129.034 241.765 126.447 246.671C132.733 237.327 134.535 223.631 134.726 212.943C134.902 203.115 132.94 193.576 129.785 184.391C133.238 180.513 148.716 179.437 142.954 171.972C139.89 168.018 134.183 169.934 131.622 173.463C129.862 175.889 129.329 179.658 129.184 182.685C128.164 179.86 127.041 177.068 125.831 174.315C124.158 170.51 122.387 166.751 120.574 163.013C127.255 160.591 137.258 149.753 131.779 144.917C123.684 137.785 120.717 157.166 119.968 160.715C120.15 160.807 120.319 160.813 120.478 160.738C120.297 161.014 120.097 161.308 119.884 161.598C116.404 154.468 112.801 147.396 109.473 140.197C110.117 140.046 111.487 139.001 112.414 138.529C114.504 137.466 116.567 136.304 118.364 134.782C121.204 132.376 124.773 128.126 121.514 124.589C117.972 120.739 113.51 125.363 112.061 128.644C111.06 130.914 110.748 133.345 110.11 135.717C109.911 136.457 108.171 139.429 109.701 138.487C109.442 138.965 109.28 139.323 109.193 139.589C108.597 138.292 108.013 136.988 107.437 135.682C107.53 135.588 107.616 135.479 107.685 135.339C108.16 134.38 107.334 133.576 106.517 133.565C105.769 131.816 105.039 130.057 104.342 128.284C102.865 124.526 101.382 120.677 99.9427 116.778C100.724 116.533 100.79 115.757 101.548 115.466C102.304 115.176 103.477 115.341 104.312 115.128C106.41 114.592 108.479 113.386 110.173 112.052C112.972 109.848 117.586 104.682 113.617 101.349C109.528 97.9111 104.643 102.692 102.777 106.194C102.416 106.872 100.214 113.437 99.626 115.913C96.9717 108.676 94.4806 101.28 92.4796 93.986C93.8 94.5399 98.6884 93.4506 99.7586 93.0398C102.37 92.0383 106.999 89.3343 104.678 85.8494C102.611 82.7553 97.9178 83.9279 95.5648 86.0181C95.1777 86.3625 92.7398 90.069 91.9094 91.8454C91.105 88.7711 90.3891 85.7189 89.7956 82.7106C89.3978 80.7091 89.0872 78.6968 88.855 76.6783C89.1332 76.6478 89.4387 76.5174 89.7557 76.3281C94.8866 77.5749 104.194 72.7388 99.6954 67.7253C97.5527 65.3399 93.556 66.6393 91.3481 68.1613C90.8961 68.4726 89.5378 70.431 88.4555 71.971C88.0911 65.4584 88.4925 58.9026 89.4436 52.4131C89.9043 52.4889 90.3937 52.3227 90.6756 51.7958C93.5668 51.4717 95.8744 51.1588 98.5906 49.3115C100.278 48.1641 103.646 45.3331 101.065 43.1823C97.7069 40.3835 92.7575 45.2224 91.1958 47.983C91.0144 48.3034 90.5948 49.2817 90.2218 50.1832C90.096 50.1074 89.96 50.0513 89.8174 50.0177C90.4847 46.0331 91.3504 42.0789 92.3633 38.1807C94.7556 38.409 99.8693 27.5304 99.1467 25.3569C97.5341 20.4926 93.1402 24.6251 92.1508 27.383C90.9846 30.635 91.1795 34.1338 91.7877 37.4264C91.8545 37.7761 91.8079 37.7404 92.0178 37.3837C91.9638 37.5814 91.9669 37.7459 92.0165 37.8853C91.2106 39.5145 90.304 41.1474 89.7515 42.6581C88.1695 46.9846 86.8323 51.4457 85.7516 55.9236C85.4888 57.0127 85.2548 58.1043 85.0486 59.1977C83.9791 57.0319 82.2524 54.7733 81.5335 53.99C79.6672 51.958 76.5851 49.3047 73.5323 50.0719ZM126.712 246.802C125.97 248.229 125.124 249.463 124.148 250.362C125.066 249.256 125.918 248.062 126.712 246.802Z" fill="#E4E4E4"/>
<path d="M80.0544 274.926V255.836C80.0544 244.791 89.0087 235.836 100.054 235.836H166.794C177.839 235.836 186.794 244.791 186.794 255.836V274.926C186.794 285.945 180.753 296.078 171.059 301.317L165.759 304.182C145.582 315.089 121.266 315.089 101.089 304.182L95.7889 301.317C86.0953 296.078 80.0544 285.945 80.0544 274.926Z" fill="#B1BAC1"/>
</svg>
