<svg width="32" height="32" viewBox="0 0 32 32" fill="none" xmlns="http://www.w3.org/2000/svg">
<path d="M29.6165 3.17358C29.3769 2.99429 29.069 2.95136 28.7935 3.05722L20.3665 6.27779L11.9396 3.05722C11.7406 2.98093 11.5263 2.98093 11.3273 3.05722L2.5943 6.39508C2.23774 6.53145 2 6.89004 2 7.29153V28.0463C2 28.3572 2.14229 28.6481 2.3836 28.8264C2.53667 28.9409 2.71763 29 2.90041 29C3.00306 29 3.10663 28.9809 3.20657 28.9428L11.6335 25.7222L20.0604 28.9428C20.2594 29.0191 20.4737 29.0191 20.6727 28.9428L29.4058 25.6049C29.7623 25.4685 30 25.11 30 24.7085V3.95368C30 3.64278 29.8578 3.35287 29.6165 3.17358ZM28.1992 14.1675L20.8168 16.9894V8.13364L28.1992 5.31172V14.1675ZM19.9163 16.9904L12.0837 13.9959V5.14101L19.9163 8.13458V16.9904ZM12.0828 15.0096L19.9155 18.0041V26.8599L12.0828 23.8664V15.0096ZM11.1824 5.14005V13.9949L3.79994 16.8168V7.96102L11.1824 5.14005ZM3.79994 17.8315L11.1824 15.0096V23.8664L3.79994 26.6883V17.8315ZM20.8168 26.8599V18.0041L28.1992 15.1822V24.039L20.8168 26.8599Z" fill="#55D585"/>
</svg>
