<svg width="248" height="78" viewBox="0 0 248 78" fill="none" xmlns="http://www.w3.org/2000/svg">
<path d="M24.4 26.2L39.6 34.5L33.2 38.0999L24.5 33.2999L7.40002 42.7V61.5L24.5 70.9L41.5 61.5V49.3L48 45.7V65L24.5 78L0.900024 65.0999V39.2L24.4 26.2Z" fill="#178ACB"/>
<path d="M52.1 39.1L28.6 52.1L12.8 43.6L19.5 39.9001L28.6 45L45.6 35.6V16.8L28.5 7.40005L11.5 16.8V29L5 32.6V13.2001L28.5 0.300049L52.1 13.2001V39.1Z" fill="#02509C"/>
<path d="M72 25.0999V36.5999H74.6C76.4 36.5999 77.3 35.8 77.3 33.4V28.2999C77.3 25.8999 76.3 25.0999 74.6 25.0999H72ZM83 28.5999V33C83 38.4 80.3 41.4 74.7 41.4H72V54.1999H66.4V20.2H74.6C80.2 20.2 83 23.1999 83 28.5999Z" fill="#178ACB"/>
<path d="M92.4 25.0999V35.5H94.6C96.7 35.5 98 34.6 98 31.9V28.5999C98 26.1999 97.1 25.0999 95.2 25.0999H92.4ZM98.6 54.1999C98.3 53.2999 98.1 52.7999 98.1 50V44.7C98.1 41.5 97 40.4 94.4 40.4H92.5V54.1999H86.9V20.2H95.3C101.1 20.2 103.6 22.8 103.6 28V30.7C103.6 34.2 102.4 36.4999 99.9 37.5999C102.7 38.6999 103.6 41.2999 103.6 44.7999V50C103.6 51.6 103.7 52.8999 104.2 54.0999H98.6V54.1999Z" fill="#178ACB"/>
<path d="M113.5 46.4001C113.5 48.8001 114.6 49.7001 116.4 49.7001C118.2 49.7001 119.3 48.8001 119.3 46.4001V28.0001C119.3 25.6001 118.2 24.7001 116.4 24.7001C114.6 24.7001 113.5 25.6001 113.5 28.0001V46.4001ZM107.9 28.4001C107.9 23.0001 110.9 19.9001 116.4 19.9001C121.9 19.9001 124.9 23.0001 124.9 28.4001V46.0001C124.9 51.4001 121.9 54.5001 116.4 54.5001C110.9 54.5001 107.9 51.4001 107.9 46.0001V28.4001Z" fill="#178ACB"/>
<path d="M145.2 28.4001V31.5001H141.4V28.2001C141.4 25.1001 140.1 23.3001 137.2 23.3001C134.4 23.3001 133 25.1001 133 28.2001V46.1001C133 49.2001 134.3 51.0001 137.2 51.0001C140.1 51.0001 141.4 49.2001 141.4 46.1001V41.7001H145.2V46.0001C145.2 51.1001 142.7 54.5001 137.2 54.5001C131.8 54.5001 129.2 51.1001 129.2 46.0001V28.4001C129.2 23.3001 131.7 19.9001 137.2 19.9001C142.7 19.9001 145.2 23.3001 145.2 28.4001Z" fill="#1C1C1C"/>
<path d="M162.5 35.2999V38.7H153.8V50.8H164.5V54.1999H149.8V20.2H164.5V23.7H153.8V35.2999H162.5Z" fill="#1C1C1C"/>
<path d="M176.6 37.4C179.6 37.4 181 36.0999 181 32.7999V28.2999C181 25.1999 179.8 23.5999 176.9 23.5999H173.1V37.2999H176.6V37.4ZM176.9 20.2C182.5 20.2 184.9 23.4 184.9 28.5V32.5999C184.9 37.9999 182.3 40.7999 176.6 40.7999H173.1V54.1999H169.1V20.2H176.9Z" fill="#1C1C1C"/>
<path d="M197.2 50.8C200.1 50.8 201.4 49.3 201.4 46.2V43.2C201.4 39.4 199.8 38.2 196.4 38.2H193V50.9H197.2V50.8ZM196.1 34.5999C199.3 34.5999 200.9 33.5999 200.9 30.0999V28.0999C200.9 25.0999 199.8 23.5999 197 23.5999H193V34.5999H196.1ZM197 20.2C202.5 20.2 204.7 22.7 204.7 27.7V29.2999C204.7 32.9 203.6 35.1 200.5 36C204 36.9 205.3 39.5 205.3 43.2999V46.2C205.3 51.3 202.7 54.1999 197.2 54.1999H189V20.2H197Z" fill="#1C1C1C"/>
<path d="M219.4 38.5L214.1 54.1999H210V20.2H213.5V45.5999L216.7 36.2L222.4 20.2H226.8V54.1999H223.2V27.2L219.4 38.5Z" fill="#1C1C1C"/>
<path d="M247.5 28.4001V31.5001H243.7V28.2001C243.7 25.1001 242.4 23.3001 239.5 23.3001C236.7 23.3001 235.3 25.1001 235.3 28.2001V46.1001C235.3 49.2001 236.6 51.0001 239.5 51.0001C242.4 51.0001 243.7 49.2001 243.7 46.1001V41.7001H247.5V46.0001C247.5 51.1001 245 54.5001 239.5 54.5001C234.1 54.5001 231.5 51.1001 231.5 46.0001V28.4001C231.5 23.3001 234 19.9001 239.5 19.9001C245 19.9001 247.5 23.3001 247.5 28.4001Z" fill="#1C1C1C"/>
<path d="M67.7 67.7001V77.9001H66.4V66.6001H71.1V67.7001H67.7Z" fill="black"/>
<path d="M76.6 72.3001C77.1 72.3001 77.5 72.2001 77.7 72.0001C77.9 71.8001 78.1 71.4001 78.1 70.8001V69.3001C78.1 68.8001 78 68.4001 77.8 68.1001C77.6 67.8001 77.2 67.7001 76.8 67.7001H75.5V72.3001H76.6ZM76.7 66.6001C77.6 66.6001 78.3 66.8001 78.7 67.3001C79.1 67.8001 79.3 68.5001 79.3 69.3001V70.7001C79.3 71.6001 79.1 72.3001 78.6 72.7001C78.2 73.2001 77.5 73.4001 76.5 73.4001H75.3V77.9001H74V66.6001H76.7Z" fill="black"/>
<path d="M85.6001 75.4C85.5001 75.8 85.4001 76.2 85.2001 76.5C85.1001 76.8 84.9001 77.1 84.6001 77.3C84.3001 77.5 84.1001 77.7 83.7001 77.8C83.3001 77.9 82.9001 77.9 82.4001 77.9V76.8C82.9001 76.8 83.3001 76.8 83.5001 76.6C83.8001 76.4 83.9001 76.1 84.1001 75.7L84.4001 75L81.7001 66.7H83.0001L84.2001 70.6L85.0001 73.4L85.7001 70.6L86.8001 66.7H88.2001L85.6001 75.4Z" fill="black"/>
<path d="M92.1 67.7001V77.9001H90.8V66.6001H96.4V77.9001H95V67.7001H92.1Z" fill="black"/>
<path d="M100.7 67.7001V77.9001H99.4V66.6001H105V77.9001H103.6V67.7001H100.7Z" fill="black"/>
<path d="M109.5 74.5001H112.1L110.8 68.0001L109.5 74.5001ZM109.3 75.6001L108.8 77.9001H107.6L109.9 66.6001H111.8L114.1 77.9001H112.8L112.3 75.6001H109.3Z" fill="black"/>
<path d="M123.2 73.0001L122.5 74.1001V77.9001H121.1V66.6001H122.5V72.0001L125.6 66.6001H126.9L124 71.7001L127 77.9001H125.7L123.2 73.0001Z" fill="black"/>
<path d="M131 75.2001C131 75.7001 131.1 76.1001 131.3 76.4001C131.5 76.7001 131.9 76.8001 132.4 76.8001C132.9 76.8001 133.2 76.7001 133.5 76.4001C133.7 76.1001 133.8 75.7001 133.8 75.2001V69.2001C133.8 68.7001 133.7 68.3001 133.5 68.0001C133.3 67.7001 132.9 67.6001 132.4 67.6001C131.9 67.6001 131.6 67.7001 131.3 68.0001C131.1 68.3001 131 68.7001 131 69.2001V75.2001ZM129.7 69.3001C129.7 68.4001 129.9 67.7001 130.4 67.2001C130.8 66.7001 131.5 66.4001 132.4 66.4001C133.3 66.4001 134 66.7001 134.4 67.2001C134.9 67.7001 135.1 68.4001 135.1 69.3001V75.1001C135.1 76.0001 134.9 76.6001 134.4 77.2001C133.9 77.7001 133.3 78.0001 132.4 78.0001C131.5 78.0001 130.8 77.7001 130.4 77.2001C130 76.7001 129.7 76.0001 129.7 75.1001V69.3001Z" fill="black"/>
<path d="M142.4 77.9001H141.1L139.2 68.9001V77.9001H138V66.6001H139.9L141.8 75.6001L143.7 66.6001H145.5V77.9001H144.3V68.8001L142.4 77.9001Z" fill="black"/>
<path d="M149.9 67.7001V77.9001H148.6V66.6001H154.1V77.9001H152.8V67.7001H149.9Z" fill="black"/>
<path d="M158.7 74.5001H161.3L160 68.0001L158.7 74.5001ZM158.5 75.6001L158 77.9001H156.8L159.1 66.6001H161L163.3 77.9001H162L161.5 75.6001H158.5Z" fill="black"/>
<path d="M167.3 72.8001V77.9001H166V66.6001H167.3V71.7001H170.2V66.6001H171.5V77.9001H170.2V72.8001H167.3Z" fill="black"/>
<path d="M177.7 72.7001L176 77.9001H174.6V66.6001H175.7V75.0001L176.8 71.9001L178.7 66.6001H180.2V77.9001H179V68.9001L177.7 72.7001Z" fill="black"/>
<path d="M187.9 64.3C187.9 64.8 187.7 65.2 187.4 65.5C187.1 65.8 186.6 65.9 186.1 65.9C185.5 65.9 185.1 65.8 184.8 65.5C184.5 65.2 184.3 64.8 184.3 64.3H185.1C185.1 64.6 185.2 64.8 185.4 64.9C185.6 65 185.8 65.1 186.1 65.1C186.4 65.1 186.6 65 186.8 64.9C187 64.8 187.1 64.6 187.1 64.3H187.9ZM186.4 72.4L184.6 77.8H183.2V66.6H184.4V75L185.5 71.7L187.3 66.5H188.8V77.8H187.6V68.8L186.4 72.4Z" fill="black"/>
</svg>
