<svg width="193" height="66" viewBox="0 0 193 66" fill="none" xmlns="http://www.w3.org/2000/svg">
<g clip-path="url(#clip0)">
<path d="M18.4111 21.1884L30.2929 28.0167L25.227 30.939L18.4134 27.018L5.06701 34.7167L5.07683 50.107L18.4423 57.7828L31.7887 50.0833L31.783 40.1064L36.8397 37.1891L36.8543 52.9927L18.4451 63.613L0 53.0235V31.8704L18.4111 21.1884Z" fill="#3F89D0"/>
<path d="M40.0248 31.7978V31.8021L21.6218 42.4238L9.31946 35.4566L14.5554 32.4354L21.621 36.5928L34.9547 28.8956V13.5103L21.5876 5.82952L8.24037 13.5297L8.25187 23.5453L3.18176 26.4654V10.621L21.5851 -4.19617e-05L40.0248 10.5894V31.7978Z" fill="#254DA2"/>
<path d="M55.6238 20.3129V29.7232H57.6931C59.0865 29.7232 59.8432 29.0884 59.8432 27.1032V22.9336C59.8432 20.9484 59.0865 20.3129 57.6931 20.3129H55.6238ZM64.2224 23.2123V26.826C64.2224 31.2728 62.0727 33.6951 57.6931 33.6951H55.6238V44.137H51.2445V16.3432H57.6931C62.0727 16.3432 64.2224 18.7647 64.2224 23.2123Z" fill="#3F89D0"/>
<path d="M71.6252 20.3129V28.8506H73.337C74.9704 28.8506 75.9659 28.1349 75.9659 25.9111V23.1722C75.9659 21.187 75.2886 20.3129 73.7363 20.3129H71.6252ZM76.4026 44.137C76.1649 43.4227 76.0047 42.9857 76.0047 40.7218V36.3551C76.0047 33.7739 75.1284 32.821 73.138 32.821H71.6252V44.137H67.2476V16.3432H73.8549C78.3944 16.3432 80.3439 18.4474 80.3439 22.7352V24.9195C80.3439 27.7788 79.4288 29.6444 77.4772 30.5571C79.6679 31.4706 80.3841 33.5754 80.3841 36.4741V40.7619C80.3841 42.1116 80.4243 43.1053 80.861 44.137H76.4026Z" fill="#3F89D0"/>
<path d="M88.067 37.745C88.067 39.7302 88.9426 40.4847 90.3346 40.4847C91.7288 40.4847 92.6044 39.7302 92.6044 37.745V22.7352C92.6044 20.75 91.7288 19.9949 90.3346 19.9949C88.9426 19.9949 88.067 20.75 88.067 22.7352V37.745ZM83.6869 23.0139C83.6869 18.5663 86.0364 16.0251 90.3346 16.0251C94.635 16.0251 96.9845 18.5663 96.9845 23.0139V37.4663C96.9845 41.9132 94.635 44.4551 90.3346 44.4551C86.0364 44.4551 83.6869 41.9132 83.6869 37.4663V23.0139Z" fill="#3F89D0"/>
<path d="M112.907 23.0524V25.5549H109.961V22.8941C109.961 20.3916 108.965 18.8843 106.697 18.8843C104.468 18.8843 103.433 20.3916 103.433 22.8941V37.5851C103.433 40.0869 104.468 41.5957 106.697 41.5957C108.965 41.5957 109.961 40.0869 109.961 37.5851V33.9722H112.907V37.4275C112.907 41.6358 110.916 44.4163 106.618 44.4163C102.358 44.4163 100.366 41.6358 100.366 37.4275V23.0524C100.366 18.8434 102.358 16.0644 106.618 16.0644C110.916 16.0644 112.907 18.8434 112.907 23.0524Z" fill="#1D1B19"/>
<path d="M126.441 28.6514V31.4311H119.634V41.3185H127.994V44.137H116.53V16.3432H127.994V19.1617H119.634V28.6514H126.441Z" fill="#1D1B19"/>
<path d="M137.507 30.3988C139.815 30.3988 140.931 29.3263 140.931 26.6655V22.9738C140.931 20.4319 140.015 19.1617 137.747 19.1617H134.76V30.3988H137.507ZM137.747 16.3432C142.126 16.3432 143.996 18.9231 143.996 23.1335V26.4678C143.996 30.8745 141.926 33.1785 137.507 33.1785H134.76V44.137H131.655V16.3432H137.747Z" fill="#1D1B19"/>
<path d="M153.63 41.3185C155.898 41.3185 156.934 40.1271 156.934 37.5451V35.0849C156.934 31.9871 155.699 30.9554 153.032 30.9554H150.325V41.3185H153.63ZM152.714 28.1349C155.182 28.1349 156.456 27.3418 156.456 24.4424V22.8154C156.456 20.3531 155.62 19.1617 153.391 19.1617H150.325V28.1349H152.714ZM153.47 16.3432C157.809 16.3432 159.521 18.4072 159.521 22.498V23.8077C159.521 26.745 158.685 28.5719 156.257 29.3263C158.966 30.0814 160 32.2257 160 35.2834V37.6261C160 41.7942 157.969 44.137 153.63 44.137H147.22V16.3432H153.47Z" fill="#1D1B19"/>
<path d="M170.946 31.3115L166.846 44.137H163.621V16.3432H166.367V37.0694L168.836 29.4058L173.295 16.3432H176.758V44.137H173.972V22.0209L170.946 31.3115Z" fill="#1D1B19"/>
<path d="M193 23.0524V25.5549H190.055V22.8941C190.055 20.3916 189.059 18.8843 186.789 18.8843C184.559 18.8843 183.525 20.3916 183.525 22.8941V37.5851C183.525 40.0869 184.559 41.5957 186.789 41.5957C189.059 41.5957 190.055 40.0869 190.055 37.5851V33.9722H193V37.4275C193 41.6358 191.01 44.4163 186.71 44.4163C182.451 44.4163 180.459 41.6358 180.459 37.4275V23.0524C180.459 18.8434 182.451 16.0644 186.71 16.0644C191.01 16.0644 193 18.8434 193 23.0524Z" fill="#1D1B19"/>
<path d="M52.2647 55.2086V63.5149H51.2445V54.2723H54.9386V55.2086H52.2647Z" fill="#100F0D"/>
<path d="M59.2143 58.9477C59.6023 58.9477 59.8894 58.8524 60.0748 58.6625C60.2603 58.4734 60.3526 58.1546 60.3526 57.7047V56.4774C60.3526 56.0555 60.2713 55.7388 60.1072 55.5275C59.9444 55.3147 59.6728 55.2086 59.2937 55.2086H58.3013V58.9477H59.2143ZM59.2937 54.2723C60.0258 54.2723 60.5549 54.4729 60.8818 54.8726C61.2086 55.2731 61.3711 55.8255 61.3711 56.5297V57.6395C61.3711 58.3781 61.1977 58.9355 60.8495 59.3102C60.4999 59.6834 59.9553 59.8719 59.2143 59.8719H58.3013V63.5149H57.2673V54.2723H59.2937Z" fill="#100F0D"/>
<path d="M66.2839 61.481C66.2038 61.8256 66.1087 62.1287 65.9982 62.393C65.8879 62.6567 65.7403 62.8773 65.5549 63.0529C65.3694 63.2291 65.1377 63.3574 64.8599 63.4354C64.5824 63.515 64.2309 63.5458 63.8077 63.5286V62.6044C64.2047 62.6216 64.5024 62.5636 64.7003 62.4253C64.8997 62.2892 65.0425 62.0456 65.1318 61.6924L65.343 61.0849L63.212 54.2724H64.2446L65.1834 57.4812L65.8203 59.8046L66.3619 57.4812L67.1963 54.2724H68.2689L66.2839 61.481Z" fill="#100F0D"/>
<path d="M71.3802 55.2086V63.5149H70.3477V54.2723H74.6895V63.5149H73.6566V55.2086H71.3802Z" fill="#100F0D"/>
<path d="M78.1057 55.2086V63.5149H77.0714V54.2723H81.4149V63.5149H80.3827V55.2086H78.1057Z" fill="#100F0D"/>
<path d="M84.9762 60.7681H87.0406L85.9948 55.4343L84.9762 60.7681ZM84.8441 61.6543L84.4864 63.5149H83.5325L85.3074 54.2723H86.8028L88.5763 63.5149H87.5441L87.1864 61.6543H84.8441Z" fill="#100F0D"/>
<path d="M95.6599 59.5008L95.1162 60.4121V63.5149H94.084V54.2723H95.1162V58.7349L97.5792 54.2723H98.6257L96.2812 58.4856L98.7047 63.5149H97.6445L95.6599 59.5008Z" fill="#100F0D"/>
<path d="M101.763 61.3361C101.763 61.7595 101.853 62.0877 102.033 62.3198C102.214 62.5541 102.49 62.6701 102.861 62.6701C103.241 62.6701 103.517 62.5541 103.694 62.3198C103.871 62.0877 103.96 61.7595 103.96 61.3361V56.4516C103.96 56.0274 103.871 55.7 103.694 55.4672C103.517 55.2329 103.241 55.1169 102.861 55.1169C102.49 55.1169 102.214 55.2329 102.033 55.4672C101.853 55.7 101.763 56.0274 101.763 56.4516V61.3361ZM100.743 56.5031C100.743 55.7903 100.917 55.2258 101.266 54.8066C101.614 54.389 102.146 54.1791 102.861 54.1791C103.576 54.1791 104.11 54.389 104.463 54.8066C104.816 55.2258 104.992 55.7903 104.992 56.5031V61.2838C104.992 61.9874 104.816 62.5505 104.463 62.9732C104.11 63.3973 103.576 63.6086 102.861 63.6086C102.146 63.6086 101.614 63.3973 101.266 62.9732C100.917 62.5505 100.743 61.9874 100.743 61.2838V56.5031Z" fill="#100F0D"/>
<path d="M110.712 63.5027H109.719L108.183 56.1472V63.5149H107.283V54.2723H108.725L110.248 61.6543L111.718 54.2723H113.16V63.5149H112.181V56.0813L110.712 63.5027Z" fill="#100F0D"/>
<path d="M116.576 55.2086V63.5149H115.542V54.2723H119.886V63.5149H118.853V55.2086H116.576Z" fill="#100F0D"/>
<path d="M123.446 60.7681H125.511L124.465 55.4343L123.446 60.7681ZM123.315 61.6543L122.958 63.5149H122.003L123.778 54.2723H125.274L127.048 63.5149H126.016L125.658 61.6543H123.315Z" fill="#100F0D"/>
<path d="M130.212 59.3553V63.5149H129.178V54.2723H130.212V58.4311H132.489V54.2723H133.522V63.5149H132.489V59.3553H130.212Z" fill="#100F0D"/>
<path d="M138.34 59.25L136.976 63.5149H135.904V54.2723H136.817V61.1643L137.637 58.6167L139.121 54.2723H140.273V63.5149H139.347V56.1608L138.34 59.25Z" fill="#100F0D"/>
<path d="M146.31 52.3838C146.31 52.7886 146.185 53.1067 145.933 53.3345C145.681 53.5637 145.33 53.6776 144.881 53.6776C144.43 53.6776 144.085 53.5637 143.841 53.3345C143.598 53.1067 143.467 52.7886 143.451 52.3838H144.099C144.117 52.6403 144.196 52.8158 144.337 52.9125C144.479 53.0085 144.66 53.0572 144.881 53.0572C145.1 53.0572 145.284 53.0085 145.43 52.9125C145.575 52.8158 145.656 52.6403 145.676 52.3838H146.31ZM145.159 59.0652L143.715 63.5149H142.642V54.2723H143.556V61.1643L144.417 58.4978L145.86 54.2723H147.012V63.5149H146.085V56.1608L145.159 59.0652Z" fill="#100F0D"/>
</g>
<defs>
<clipPath id="clip0">
<rect width="193" height="66" fill="white"/>
</clipPath>
</defs>
</svg>
