<svg width="179" height="57" viewBox="0 0 179 57" fill="none" xmlns="http://www.w3.org/2000/svg">
<path d="M16.9639 19L27.9363 25.0888L23.3164 27.7297L17.0361 24.2085L4.69214 31.1042V44.8958L17.0361 51.7915L29.3079 44.8958V35.9459L34 33.305V47.4633L17.0361 57L0 47.5367V28.5367L16.9639 19Z" fill="#178ACB"/>
<path d="M37 28.4633L20.0361 38L8.63057 31.7645L13.4671 29.0502L20.0361 32.7915L32.3079 25.8958V12.1042L19.9639 5.20849L7.69214 12.1042V21.0541L3 23.695V9.46332L19.9639 0L37 9.46332V28.4633Z" fill="#02509C"/>
<path d="M52.0482 18.6029V27.0588H53.9277C55.2289 27.0588 55.8795 26.4706 55.8795 24.7059V20.9559C55.8795 19.1912 55.1566 18.6029 53.9277 18.6029H52.0482ZM60 21.1765V24.4118C60 28.3824 58.0482 30.5882 54 30.5882H52.0482V40H48V15H53.9277C57.9759 15 60 17.2059 60 21.1765Z" fill="#178ACB"/>
<path d="M66.1329 18.6029V26.25H67.7861C69.3642 26.25 70.341 25.5882 70.341 23.6029V21.1765C70.341 19.4118 69.6647 18.6029 68.237 18.6029H66.1329ZM70.7919 40C70.5665 39.3382 70.4162 38.9706 70.4162 36.9118V33.0147C70.4162 30.6618 69.5896 29.8529 67.6358 29.8529H66.2081V40H62V15H68.3121C72.6705 15 74.5491 16.9118 74.5491 20.7353V22.7206C74.5491 25.2941 73.6474 26.9853 71.7688 27.7941C73.8728 28.6029 74.5491 30.5147 74.5491 33.0882V36.9118C74.5491 38.0882 74.6243 39.0441 75 39.9265H70.7919V40Z" fill="#178ACB"/>
<path d="M81.9529 34.1474C81.9529 35.8815 82.7294 36.5318 84 36.5318C85.2706 36.5318 86.0471 35.8815 86.0471 34.1474V20.8526C86.0471 19.1185 85.2706 18.4682 84 18.4682C82.7294 18.4682 81.9529 19.1185 81.9529 20.8526V34.1474ZM78 21.1416C78 17.2399 80.1176 15 84 15C87.8824 15 90 17.2399 90 21.1416V33.8584C90 37.7601 87.8824 40 84 40C80.1176 40 78 37.7601 78 33.8584V21.1416Z" fill="#178ACB"/>
<path d="M105 21.1416V23.3815H102.15V20.9971C102.15 18.7572 101.175 17.4566 99 17.4566C96.9 17.4566 95.85 18.7572 95.85 20.9971V33.9306C95.85 36.1705 96.825 37.4711 99 37.4711C101.175 37.4711 102.15 36.1705 102.15 33.9306V30.7514H105V33.8584C105 37.5434 103.125 40 99 40C94.95 40 93 37.5434 93 33.8584V21.1416C93 17.4566 94.875 15 99 15C103.125 15 105 17.4566 105 21.1416Z" fill="#1C1C1C"/>
<path d="M117.503 26.1029V28.6029H110.993V37.5H119V40H108V15H119V17.5735H110.993V26.1029H117.503Z" fill="#1C1C1C"/>
<path d="M127.222 27.6471C129.31 27.6471 130.285 26.6912 130.285 24.2647V20.9559C130.285 18.6765 129.449 17.5 127.43 17.5H124.785V27.5735H127.222V27.6471ZM127.43 15C131.329 15 133 17.3529 133 21.1029V24.1176C133 28.0882 131.19 30.1471 127.222 30.1471H124.785V40H122V15H127.43Z" fill="#1C1C1C"/>
<path d="M143.037 37.5C145.172 37.5 146.129 36.3971 146.129 34.1176V31.9118C146.129 29.1176 144.951 28.2353 142.448 28.2353H139.945V37.5735H143.037V37.5ZM142.227 25.5882C144.583 25.5882 145.761 24.8529 145.761 22.2794V20.8088C145.761 18.6029 144.951 17.5 142.89 17.5H139.945V25.5882H142.227ZM142.89 15C146.939 15 148.558 16.8382 148.558 20.5147V21.6912C148.558 24.3382 147.748 25.9559 145.466 26.6176C148.043 27.2794 149 29.1912 149 31.9853V34.1176C149 37.8677 147.086 40 143.037 40H137V15H142.89Z" fill="#1C1C1C"/>
<path d="M158.714 28.4559L154.929 40H152V15H154.5V33.6765L156.786 26.7647L160.857 15H164V40H161.429V20.1471L158.714 28.4559Z" fill="#1C1C1C"/>
<path d="M179 21.1416V23.3815H176.15V20.9971C176.15 18.7572 175.175 17.4566 173 17.4566C170.9 17.4566 169.85 18.7572 169.85 20.9971V33.9306C169.85 36.1705 170.825 37.4711 173 37.4711C175.175 37.4711 176.15 36.1705 176.15 33.9306V30.7514H179V33.8584C179 37.5434 177.125 40 173 40C168.95 40 167 37.5434 167 33.8584V21.1416C167 17.4566 168.875 15 173 15C177.125 15 179 17.4566 179 21.1416Z" fill="#1C1C1C"/>
<path d="M48.8298 49.7788V57H48V49H51V49.7788H48.8298Z" fill="black"/>
<path d="M54.9623 53.0354C55.3396 53.0354 55.6415 52.9646 55.7924 52.823C55.9434 52.6814 56.0943 52.3982 56.0943 51.9735V50.9115C56.0943 50.5575 56.0189 50.2743 55.8679 50.0619C55.717 49.8496 55.4151 49.7788 55.1132 49.7788H54.1321V53.0354H54.9623ZM55.0377 49C55.717 49 56.2453 49.1416 56.5472 49.4956C56.8491 49.8496 57 50.3451 57 50.9115V51.9027C57 52.5398 56.8491 53.0354 56.4717 53.3186C56.1698 53.6726 55.6415 53.8142 54.8868 53.8142H53.9811V57H53V49H55.0377Z" fill="black"/>
<path d="M62 55.2143C61.9231 55.5 61.8462 55.7857 61.6923 56C61.6154 56.2143 61.4615 56.4286 61.2308 56.5714C61 56.7143 60.8462 56.8571 60.5385 56.9286C60.2308 57 59.9231 57 59.5385 57V56.2143C59.9231 56.2143 60.2308 56.2143 60.3846 56.0714C60.6154 55.9286 60.6923 55.7143 60.8462 55.4286L61.0769 54.9286L59 49H60L60.9231 51.7857L61.5385 53.7857L62.0769 51.7857L62.9231 49H64L62 55.2143Z" fill="black"/>
<path d="M65.9286 49.7788V57H65V49H69V57H68V49.7788H65.9286Z" fill="black"/>
<path d="M71.9286 49.7788V57H71V49H75V57H74V49.7788H71.9286Z" fill="black"/>
<path d="M78.4615 54.5929H80.4615L79.4615 49.9912L78.4615 54.5929ZM78.3077 55.3717L77.9231 57H77L78.7692 49H80.2308L82 57H81L80.6154 55.3717H78.3077Z" fill="black"/>
<path d="M89.4237 53.531L88.9491 54.3097V57H88V49H88.9491V52.823L91.0509 49H91.9322L89.9661 52.6106L92 57H91.1186L89.4237 53.531Z" fill="black"/>
<path d="M94.963 54.9725C94.963 55.3346 95.037 55.6242 95.1852 55.8415C95.3333 56.0587 95.6296 56.1311 96 56.1311C96.3704 56.1311 96.5926 56.0587 96.8148 55.8415C96.963 55.6242 97.037 55.3346 97.037 54.9725V50.6277C97.037 50.2656 96.963 49.976 96.8148 49.7587C96.6667 49.5415 96.3704 49.4691 96 49.4691C95.6296 49.4691 95.4074 49.5415 95.1852 49.7587C95.037 49.976 94.963 50.2656 94.963 50.6277V54.9725ZM94 50.7001C94 50.0484 94.1481 49.5415 94.5185 49.1794C94.8148 48.8173 95.3333 48.6001 96 48.6001C96.6667 48.6001 97.1852 48.8173 97.4815 49.1794C97.8518 49.5415 98 50.0484 98 50.7001V54.9001C98 55.5518 97.8518 55.9863 97.4815 56.4208C97.1111 56.7829 96.6667 57.0001 96 57.0001C95.3333 57.0001 94.8148 56.7829 94.5185 56.4208C94.2222 56.0587 94 55.5518 94 54.9001V50.7001Z" fill="black"/>
<path d="M102.933 57H102.067L100.8 50.6283V57H100V49H101.267L102.533 55.3717L103.8 49H105V57H104.2V50.5575L102.933 57Z" fill="black"/>
<path d="M107.945 49.7788V57H107V49H111V57H110.055V49.7788H107.945Z" fill="black"/>
<path d="M114.462 54.5929H116.462L115.462 49.9912L114.462 54.5929ZM114.308 55.3717L113.923 57H113L114.769 49H116.231L118 57H117L116.615 55.3717H114.308Z" fill="black"/>
<path d="M120.945 53.3894V57H120V49H120.945V52.6106H123.055V49H124V57H123.055V53.3894H120.945Z" fill="black"/>
<path d="M128.214 53.3186L127 57H126V49H126.786V54.9469L127.571 52.7522L128.929 49H130V57H129.143V50.6283L128.214 53.3186Z" fill="black"/>
<path d="M135.357 47C135.357 47.3704 135.214 47.6667 135 47.8889C134.786 48.1111 134.429 48.1852 134.071 48.1852C133.643 48.1852 133.357 48.1111 133.143 47.8889C132.929 47.6667 132.786 47.3704 132.786 47H133.357C133.357 47.2222 133.429 47.3704 133.571 47.4444C133.714 47.5185 133.857 47.5926 134.071 47.5926C134.286 47.5926 134.429 47.5185 134.571 47.4444C134.714 47.3704 134.786 47.2222 134.786 47H135.357ZM134.286 53L133 57H132V48.7037H132.857V54.9259L133.643 52.4815L134.929 48.6296H136V57H135.143V50.3333L134.286 53Z" fill="black"/>
</svg>
