<svg width="34" height="28" viewBox="0 0 34 28" fill="none" xmlns="http://www.w3.org/2000/svg">
<path fill-rule="evenodd" clip-rule="evenodd" d="M16.8668 2.00069C10.1642 1.94799 3.82986 4.90844 1.72863 9.88678C-0.401165 14.9328 2.29301 20.3821 7.79067 23.5044C13.2835 26.6239 20.7357 26.9312 26.2069 23.7886C31.598 20.6919 33.2227 15.0778 31.0964 10.1177C29.0331 5.30462 23.3569 2.05172 16.8668 2.00069Z" fill="#E4ECF7"/>
<mask id="path-2-inside-1" fill="white">
<path d="M17 0C7.5 0 0 4.04226 0 9.07043C0 9.95775 0.200006 10.7465 0.600006 11.5352C0.200006 12.3239 0 13.1127 0 14C0 14.8873 0.200006 15.6761 0.600006 16.4648C0.200006 17.2535 0 18.0422 0 18.9296C0 24.0563 7.5 28 17 28C18.2 28 19.3 27.9014 20.4 27.8028C28.2 27.0141 34 23.3662 34 18.831C34 18.2394 33.9 17.7465 33.7 17.1549C33.6 16.8592 33.5 16.5634 33.3 16.3662C33.7 15.5775 33.9 14.7887 33.9 13.9014C33.9 13.0141 33.7 12.2253 33.3 11.4366C33.7 10.6479 33.9 9.85915 33.9 8.97183C34 3.94366 26.5 0 17 0ZM31.3 16.0704C30.5 17.2535 29.2 18.2394 27.4 19.0282V18.9296C27.4 18.1408 27.2 17.3521 26.8 16.5634C28.9 15.7747 30.7 14.6901 31.9 13.507C31.9 13.7042 31.9 13.9014 31.9 14C32 14.6901 31.8 15.3803 31.3 16.0704ZM7.5 22.8732C7.5 22.4789 7.60001 22.0845 7.70001 21.6901C9.20001 22.1831 10.8 22.5775 12.6 22.8732C12.5 23.169 12.5 23.5634 12.5 23.9577C12.5 24.6479 12.7 25.2394 12.9 25.9296C11.1 25.6338 9.39999 25.2394 7.89999 24.6479C7.59999 23.9577 7.5 23.4648 7.5 22.8732ZM2 14C2 13.8028 2 13.6056 2 13.507C3.2 14.6901 4.80001 15.6761 6.70001 16.4648C6.50001 16.9577 6.39999 17.4507 6.39999 18.0423C6.39999 18.4366 6.50001 18.831 6.60001 19.2253C3.80001 17.8451 2 15.9718 2 14ZM7.89999 19.6197C7.59999 19.0282 7.5 18.5352 7.5 17.9437C7.5 17.5493 7.60001 17.1549 7.70001 16.7605C9.20001 17.2535 10.8 17.6479 12.6 17.9437C12.5 18.2394 12.5 18.6338 12.5 19.0282C12.5 19.7183 12.7 20.3099 12.9 21C11.1 20.6056 9.39999 20.2113 7.89999 19.6197ZM14.1 21C13.7 20.3099 13.5 19.6197 13.5 18.9296C13.5 18.6338 13.5 18.338 13.6 18.0423C14.7 18.1408 15.8 18.2394 17 18.2394C18 18.2394 19 18.1409 19.9 18.1409C20.2 18.7324 20.4 19.4225 20.4 20.0141C20.4 20.4085 20.3 20.7042 20.2 21.0986C19.1 21.1972 18 21.2958 16.9 21.2958C16 21.0986 15 21.0986 14.1 21ZM21 17.9437C22.7 17.7465 24.4 17.3521 25.8 16.8591C26.2 17.5493 26.4 18.2394 26.4 18.9296C26.4 19.1268 26.4 19.3239 26.3 19.5211C24.8 20.1127 23.1 20.507 21.3 20.8028C21.4 20.507 21.4 20.2113 21.4 19.9155C21.4 19.2253 21.3 18.5352 21 17.9437ZM17 1.97183C25.1 1.97183 32 5.22536 32 9.07043C32 12.9155 25.1 16.169 17 16.169C8.9 16.169 2 12.9155 2 9.07043C2 5.22536 8.9 1.97183 17 1.97183ZM2 18.9296C2 18.7324 2 18.5352 2 18.4366C3.2 19.6197 4.80001 20.6056 6.70001 21.3944C6.50001 21.8873 6.39999 22.3803 6.39999 22.9718C6.39999 23.3662 6.50001 23.7605 6.60001 24.1549C3.80001 22.7746 2 20.9014 2 18.9296ZM14.1 25.9296C13.7 25.2394 13.5 24.5493 13.5 23.8591C13.5 23.5634 13.5 23.2676 13.6 22.9718C14.7 23.0704 15.8 23.169 17 23.169C18 23.169 19 23.0704 19.9 23.0704C20.2 23.662 20.4 24.3521 20.4 24.9437C20.4 25.338 20.3 25.6338 20.2 26.0282C19.1 26.1268 18 26.2253 16.9 26.2253C16 26.0282 15 26.0282 14.1 25.9296ZM21 22.8732C22.7 22.676 24.4 22.2817 25.8 21.7887C26.2 22.4789 26.4 23.169 26.4 23.8591C26.4 24.0563 26.4 24.2535 26.3 24.4507C24.8 25.0422 23.1 25.4366 21.3 25.7324C21.4 25.4366 21.4 25.1408 21.4 24.8451C21.4 24.1549 21.3 23.4648 21 22.8732ZM27.4 24.0563C27.4 23.9578 27.4 23.9577 27.4 23.8591C27.4 23.0704 27.2 22.2817 26.8 21.493C28.9 20.7042 30.7 19.6197 32 18.4366C32 18.6338 32 18.831 32 18.9296C32 20.9014 30.2 22.6761 27.4 24.0563Z"/>
<path d="M18.2049 9.89967L17.3515 9.40704L17.3624 9.40076C19.1047 8.39492 20.0995 7.24492 18.1022 6.09186C15.4017 4.5329 12.7116 6.09968 10.8723 7.35594L14.6727 9.54992L13.7392 10.09L14.9539 10.7912L15.8894 10.2511L16.7437 10.7443L15.8082 11.2844L17.0229 11.9856L17.9584 11.4456L19.3987 12.2771L20.8599 11.4336L19.4185 10.6015L21.4931 9.40381L20.2785 8.70258L18.2049 9.89967ZM13.5006 7.18392C14.2828 6.62465 15.6379 6.29147 16.6972 6.90297C17.8281 7.55589 17.0779 8.19343 16.1369 8.70582L13.5006 7.18392Z"/>
</mask>
<path d="M17 0C7.5 0 0 4.04226 0 9.07043C0 9.95775 0.200006 10.7465 0.600006 11.5352C0.200006 12.3239 0 13.1127 0 14C0 14.8873 0.200006 15.6761 0.600006 16.4648C0.200006 17.2535 0 18.0422 0 18.9296C0 24.0563 7.5 28 17 28C18.2 28 19.3 27.9014 20.4 27.8028C28.2 27.0141 34 23.3662 34 18.831C34 18.2394 33.9 17.7465 33.7 17.1549C33.6 16.8592 33.5 16.5634 33.3 16.3662C33.7 15.5775 33.9 14.7887 33.9 13.9014C33.9 13.0141 33.7 12.2253 33.3 11.4366C33.7 10.6479 33.9 9.85915 33.9 8.97183C34 3.94366 26.5 0 17 0ZM31.3 16.0704C30.5 17.2535 29.2 18.2394 27.4 19.0282V18.9296C27.4 18.1408 27.2 17.3521 26.8 16.5634C28.9 15.7747 30.7 14.6901 31.9 13.507C31.9 13.7042 31.9 13.9014 31.9 14C32 14.6901 31.8 15.3803 31.3 16.0704ZM7.5 22.8732C7.5 22.4789 7.60001 22.0845 7.70001 21.6901C9.20001 22.1831 10.8 22.5775 12.6 22.8732C12.5 23.169 12.5 23.5634 12.5 23.9577C12.5 24.6479 12.7 25.2394 12.9 25.9296C11.1 25.6338 9.39999 25.2394 7.89999 24.6479C7.59999 23.9577 7.5 23.4648 7.5 22.8732ZM2 14C2 13.8028 2 13.6056 2 13.507C3.2 14.6901 4.80001 15.6761 6.70001 16.4648C6.50001 16.9577 6.39999 17.4507 6.39999 18.0423C6.39999 18.4366 6.50001 18.831 6.60001 19.2253C3.80001 17.8451 2 15.9718 2 14ZM7.89999 19.6197C7.59999 19.0282 7.5 18.5352 7.5 17.9437C7.5 17.5493 7.60001 17.1549 7.70001 16.7605C9.20001 17.2535 10.8 17.6479 12.6 17.9437C12.5 18.2394 12.5 18.6338 12.5 19.0282C12.5 19.7183 12.7 20.3099 12.9 21C11.1 20.6056 9.39999 20.2113 7.89999 19.6197ZM14.1 21C13.7 20.3099 13.5 19.6197 13.5 18.9296C13.5 18.6338 13.5 18.338 13.6 18.0423C14.7 18.1408 15.8 18.2394 17 18.2394C18 18.2394 19 18.1409 19.9 18.1409C20.2 18.7324 20.4 19.4225 20.4 20.0141C20.4 20.4085 20.3 20.7042 20.2 21.0986C19.1 21.1972 18 21.2958 16.9 21.2958C16 21.0986 15 21.0986 14.1 21ZM21 17.9437C22.7 17.7465 24.4 17.3521 25.8 16.8591C26.2 17.5493 26.4 18.2394 26.4 18.9296C26.4 19.1268 26.4 19.3239 26.3 19.5211C24.8 20.1127 23.1 20.507 21.3 20.8028C21.4 20.507 21.4 20.2113 21.4 19.9155C21.4 19.2253 21.3 18.5352 21 17.9437ZM17 1.97183C25.1 1.97183 32 5.22536 32 9.07043C32 12.9155 25.1 16.169 17 16.169C8.9 16.169 2 12.9155 2 9.07043C2 5.22536 8.9 1.97183 17 1.97183ZM2 18.9296C2 18.7324 2 18.5352 2 18.4366C3.2 19.6197 4.80001 20.6056 6.70001 21.3944C6.50001 21.8873 6.39999 22.3803 6.39999 22.9718C6.39999 23.3662 6.50001 23.7605 6.60001 24.1549C3.80001 22.7746 2 20.9014 2 18.9296ZM14.1 25.9296C13.7 25.2394 13.5 24.5493 13.5 23.8591C13.5 23.5634 13.5 23.2676 13.6 22.9718C14.7 23.0704 15.8 23.169 17 23.169C18 23.169 19 23.0704 19.9 23.0704C20.2 23.662 20.4 24.3521 20.4 24.9437C20.4 25.338 20.3 25.6338 20.2 26.0282C19.1 26.1268 18 26.2253 16.9 26.2253C16 26.0282 15 26.0282 14.1 25.9296ZM21 22.8732C22.7 22.676 24.4 22.2817 25.8 21.7887C26.2 22.4789 26.4 23.169 26.4 23.8591C26.4 24.0563 26.4 24.2535 26.3 24.4507C24.8 25.0422 23.1 25.4366 21.3 25.7324C21.4 25.4366 21.4 25.1408 21.4 24.8451C21.4 24.1549 21.3 23.4648 21 22.8732ZM27.4 24.0563C27.4 23.9578 27.4 23.9577 27.4 23.8591C27.4 23.0704 27.2 22.2817 26.8 21.493C28.9 20.7042 30.7 19.6197 32 18.4366C32 18.6338 32 18.831 32 18.9296C32 20.9014 30.2 22.6761 27.4 24.0563Z" fill="#02509C"/>
<path d="M18.2049 9.89967L17.3515 9.40704L17.3624 9.40076C19.1047 8.39492 20.0995 7.24492 18.1022 6.09186C15.4017 4.5329 12.7116 6.09968 10.8723 7.35594L14.6727 9.54992L13.7392 10.09L14.9539 10.7912L15.8894 10.2511L16.7437 10.7443L15.8082 11.2844L17.0229 11.9856L17.9584 11.4456L19.3987 12.2771L20.8599 11.4336L19.4185 10.6015L21.4931 9.40381L20.2785 8.70258L18.2049 9.89967ZM13.5006 7.18392C14.2828 6.62465 15.6379 6.29147 16.6972 6.90297C17.8281 7.55589 17.0779 8.19343 16.1369 8.70582L13.5006 7.18392Z" fill="#02509C"/>
<path d="M17 0C7.5 0 0 4.04226 0 9.07043C0 9.95775 0.200006 10.7465 0.600006 11.5352C0.200006 12.3239 0 13.1127 0 14C0 14.8873 0.200006 15.6761 0.600006 16.4648C0.200006 17.2535 0 18.0422 0 18.9296C0 24.0563 7.5 28 17 28C18.2 28 19.3 27.9014 20.4 27.8028C28.2 27.0141 34 23.3662 34 18.831C34 18.2394 33.9 17.7465 33.7 17.1549C33.6 16.8592 33.5 16.5634 33.3 16.3662C33.7 15.5775 33.9 14.7887 33.9 13.9014C33.9 13.0141 33.7 12.2253 33.3 11.4366C33.7 10.6479 33.9 9.85915 33.9 8.97183C34 3.94366 26.5 0 17 0ZM31.3 16.0704C30.5 17.2535 29.2 18.2394 27.4 19.0282V18.9296C27.4 18.1408 27.2 17.3521 26.8 16.5634C28.9 15.7747 30.7 14.6901 31.9 13.507C31.9 13.7042 31.9 13.9014 31.9 14C32 14.6901 31.8 15.3803 31.3 16.0704ZM7.5 22.8732C7.5 22.4789 7.60001 22.0845 7.70001 21.6901C9.20001 22.1831 10.8 22.5775 12.6 22.8732C12.5 23.169 12.5 23.5634 12.5 23.9577C12.5 24.6479 12.7 25.2394 12.9 25.9296C11.1 25.6338 9.39999 25.2394 7.89999 24.6479C7.59999 23.9577 7.5 23.4648 7.5 22.8732ZM2 14C2 13.8028 2 13.6056 2 13.507C3.2 14.6901 4.80001 15.6761 6.70001 16.4648C6.50001 16.9577 6.39999 17.4507 6.39999 18.0423C6.39999 18.4366 6.50001 18.831 6.60001 19.2253C3.80001 17.8451 2 15.9718 2 14ZM7.89999 19.6197C7.59999 19.0282 7.5 18.5352 7.5 17.9437C7.5 17.5493 7.60001 17.1549 7.70001 16.7605C9.20001 17.2535 10.8 17.6479 12.6 17.9437C12.5 18.2394 12.5 18.6338 12.5 19.0282C12.5 19.7183 12.7 20.3099 12.9 21C11.1 20.6056 9.39999 20.2113 7.89999 19.6197ZM14.1 21C13.7 20.3099 13.5 19.6197 13.5 18.9296C13.5 18.6338 13.5 18.338 13.6 18.0423C14.7 18.1408 15.8 18.2394 17 18.2394C18 18.2394 19 18.1409 19.9 18.1409C20.2 18.7324 20.4 19.4225 20.4 20.0141C20.4 20.4085 20.3 20.7042 20.2 21.0986C19.1 21.1972 18 21.2958 16.9 21.2958C16 21.0986 15 21.0986 14.1 21ZM21 17.9437C22.7 17.7465 24.4 17.3521 25.8 16.8591C26.2 17.5493 26.4 18.2394 26.4 18.9296C26.4 19.1268 26.4 19.3239 26.3 19.5211C24.8 20.1127 23.1 20.507 21.3 20.8028C21.4 20.507 21.4 20.2113 21.4 19.9155C21.4 19.2253 21.3 18.5352 21 17.9437ZM17 1.97183C25.1 1.97183 32 5.22536 32 9.07043C32 12.9155 25.1 16.169 17 16.169C8.9 16.169 2 12.9155 2 9.07043C2 5.22536 8.9 1.97183 17 1.97183ZM2 18.9296C2 18.7324 2 18.5352 2 18.4366C3.2 19.6197 4.80001 20.6056 6.70001 21.3944C6.50001 21.8873 6.39999 22.3803 6.39999 22.9718C6.39999 23.3662 6.50001 23.7605 6.60001 24.1549C3.80001 22.7746 2 20.9014 2 18.9296ZM14.1 25.9296C13.7 25.2394 13.5 24.5493 13.5 23.8591C13.5 23.5634 13.5 23.2676 13.6 22.9718C14.7 23.0704 15.8 23.169 17 23.169C18 23.169 19 23.0704 19.9 23.0704C20.2 23.662 20.4 24.3521 20.4 24.9437C20.4 25.338 20.3 25.6338 20.2 26.0282C19.1 26.1268 18 26.2253 16.9 26.2253C16 26.0282 15 26.0282 14.1 25.9296ZM21 22.8732C22.7 22.676 24.4 22.2817 25.8 21.7887C26.2 22.4789 26.4 23.169 26.4 23.8591C26.4 24.0563 26.4 24.2535 26.3 24.4507C24.8 25.0422 23.1 25.4366 21.3 25.7324C21.4 25.4366 21.4 25.1408 21.4 24.8451C21.4 24.1549 21.3 23.4648 21 22.8732ZM27.4 24.0563C27.4 23.9578 27.4 23.9577 27.4 23.8591C27.4 23.0704 27.2 22.2817 26.8 21.493C28.9 20.7042 30.7 19.6197 32 18.4366C32 18.6338 32 18.831 32 18.9296C32 20.9014 30.2 22.6761 27.4 24.0563Z" stroke="#CDD8E7" stroke-width="0.6" mask="url(#path-2-inside-1)"/>
<path d="M18.2049 9.89967L17.3515 9.40704L17.3624 9.40076C19.1047 8.39492 20.0995 7.24492 18.1022 6.09186C15.4017 4.5329 12.7116 6.09968 10.8723 7.35594L14.6727 9.54992L13.7392 10.09L14.9539 10.7912L15.8894 10.2511L16.7437 10.7443L15.8082 11.2844L17.0229 11.9856L17.9584 11.4456L19.3987 12.2771L20.8599 11.4336L19.4185 10.6015L21.4931 9.40381L20.2785 8.70258L18.2049 9.89967ZM13.5006 7.18392C14.2828 6.62465 15.6379 6.29147 16.6972 6.90297C17.8281 7.55589 17.0779 8.19343 16.1369 8.70582L13.5006 7.18392Z" stroke="#CDD8E7" stroke-width="0.6" mask="url(#path-2-inside-1)"/>
</svg>
