<svg width="39" height="36" viewBox="0 0 39 36" fill="none" xmlns="http://www.w3.org/2000/svg">
<path d="M30.8562 0.433197C38.3562 -3.0668 37.8561 15.4332 38.3561 27.4333C38.8561 39.4335 23.8561 35.9332 19.3561 33.4332C14.8561 30.9332 9.35615 38.9332 3.85615 33.4332C-1.64385 27.9332 -1.64385 17.9332 6.35615 8.43316C14.3562 -1.06684 11.8561 12.4332 19.3561 19.9332C26.8561 27.4332 23.3562 3.9332 30.8562 0.433197Z" fill="#E4ECF7"/>
<path d="M6 35H14C15.1 35 16 34.1 16 33V25H24V33C24 34.1 24.9 35 26 35H34C35.1 35 36 34.1 36 33V9C36 7.9 35.1 7 34 7H33V4C33 3.4 32.6 3 32 3H28C27.4 3 27 3.4 27 4V7H26C24.9 7 24 7.9 24 9V15H16V9C16 7.9 15.1 7 14 7H13V4C13 3.4 12.6 3 12 3H8C7.4 3 7 3.4 7 4V7H6C4.9 7 4 7.9 4 9V33C4 34.1 4.9 35 6 35ZM6 33V31H11V33H6ZM12 33V31H14V33H12ZM26 33V31H31V33H26ZM32 33V31H34V33H32ZM29 5H31V7H29V5ZM26 9H28H32H34V29H32V13C32 12.7 31.8 12.5 31.5 12.5C31.2 12.5 31 12.7 31 13V29H26V9ZM24 17V23H16V17H24ZM9 5H11V7H9V5ZM6 9H8H12H14V29H12V13C12 12.7 11.8 12.5 11.5 12.5C11.2 12.5 11 12.7 11 13V29H6V9Z" fill="#02509C"/>
</svg>
