<svg width="42" height="42" viewBox="0 0 42 42" fill="none" xmlns="http://www.w3.org/2000/svg">
<path d="M4 16C4 10.4772 8.47715 6 14 6H29C34.5228 6 39 10.4772 39 16V31C39 36.5228 34.5228 41 29 41H14C8.47715 41 4 36.5228 4 31V16Z" fill="#E4ECF7"/>
<path d="M8.00967 33.9952C8.00967 34.5501 7.55979 35 7.00482 35C6.44986 35 5.99998 34.5501 5.99998 33.9952L5.99998 16.0049C5.99998 15.4499 6.44986 15 7.00483 15C7.55979 15 8.00967 15.4499 8.00967 16.0049L8.00967 33.9952ZM37 34.0106C37 34.557 36.557 35 36.0106 35C35.4641 35 35.0212 34.557 35.0212 34.0106V15.9894C35.0212 15.443 35.4641 15 36.0106 15C36.557 15 37 15.443 37 15.9894L37 34.0106Z" fill="#02509C"/>
<path fill-rule="evenodd" clip-rule="evenodd" d="M11 20.5C11.2761 20.5 11.5 20.7239 11.5 21V34C11.5 34.2762 11.2761 34.5 11 34.5C10.7238 34.5 10.5 34.2762 10.5 34V21C10.5 20.7239 10.7238 20.5 11 20.5Z" fill="#02509C"/>
<path fill-rule="evenodd" clip-rule="evenodd" d="M32 20.5C32.2761 20.5 32.5 20.7239 32.5 21L32.5 34C32.5 34.2762 32.2761 34.5 32 34.5C31.7238 34.5 31.5 34.2762 31.5 34L31.5 21C31.5 20.7239 31.7238 20.5 32 20.5Z" fill="#02509C"/>
<path fill-rule="evenodd" clip-rule="evenodd" d="M20.4119 2.39011C21.0172 2.05812 21.7509 2.06178 22.3529 2.3998L39.9059 12.2561C41.7011 13.2642 40.9856 16 38.9267 16H3.40278C1.33322 16 0.626488 13.2416 2.44102 12.2464L3.40278 14H38.9267L21.3737 4.14368L3.40278 14L2.44102 12.2464L20.4119 2.39011Z" fill="#02509C"/>
<path fill-rule="evenodd" clip-rule="evenodd" d="M5.2521 34.2677C5.4658 34.0945 5.7325 34 6.00755 34H36.4528C36.8014 34 37.1329 34.1517 37.3608 34.4155L40.0423 37.5194C40.8819 38.4912 40.1915 40 38.9073 40H2.4113C0.998047 40 0.368943 38.2243 1.46699 37.3346L5.2521 34.2677ZM6.29097 36L3.82262 38H37.8146L36.0867 36H6.29097Z" fill="#02509C"/>
<path d="M20.2508 27.3029V27.4529H20.4008H23.1833V28.8707H20.3994H20.2494V29.0207V30.9091H18.483V29.0221V28.8721H18.333H17.16V27.4543H18.333H18.483V27.3043V26.0962V25.9462H18.333H17.16V24.5282L18.3318 24.527L18.4816 24.5268V24.377V19.1405C19.8699 19.0293 21.4423 18.9866 22.6786 19.405C23.3136 19.6199 23.8514 19.9538 24.2312 20.4554C24.6103 20.9561 24.8422 21.6374 24.8422 22.5663C24.8422 23.9346 24.3347 24.7656 23.548 25.2638C22.7484 25.7701 21.6394 25.9462 20.4162 25.9462H20.4008H20.2508V26.0962V27.3029ZM20.3849 20.501L20.2508 20.5153V20.6502V24.3784V24.524L20.3964 24.5283C21.0478 24.5474 21.7322 24.4959 22.2578 24.219C22.5239 24.0789 22.7508 23.8803 22.91 23.6046C23.0689 23.3295 23.1552 22.9868 23.1552 22.5663C23.1552 21.7636 22.7853 21.2043 22.2464 20.8696C21.7149 20.5395 21.0282 20.4324 20.3849 20.501Z" fill="#02509C" stroke="#E4ECF7" stroke-width="0.3"/>
</svg>
