<svg width="41" height="39" viewBox="0 0 41 39" fill="none" xmlns="http://www.w3.org/2000/svg">
<path d="M3 20C3 16.6863 5.68629 14 9 14H24C27.3137 14 30 16.6863 30 20V25C30 28.3137 27.3137 31 24 31H9C5.68629 31 3 28.3137 3 25V20Z" fill="#E4ECF7"/>
<path d="M13 8C13 4.68629 15.6863 2 19 2H34C37.3137 2 40 4.68629 40 8V13C40 16.3137 37.3137 19 34 19H19C15.6863 19 13 16.3137 13 13V8Z" fill="#E4ECF7"/>
<path fill-rule="evenodd" clip-rule="evenodd" d="M10 2C10 0.895431 10.8954 0 12 0H39C40.1046 0 41 0.89543 41 2V20C41 21.1046 40.1046 22 39 22H29V12H10V2ZM39 2L12 2V10H29C30.1046 10 31 10.8954 31 12V20H39V2Z" fill="#02509C"/>
<path fill-rule="evenodd" clip-rule="evenodd" d="M0 12C0 10.8954 0.89543 10 2 10H29C30.1046 10 31 10.8954 31 12V30.1242C31 31.2288 30.1046 32.1242 29 32.1242H15.8988L8.93813 38.7256C8.64816 39.0006 8.22228 39.0765 7.85512 38.9187C7.48795 38.7609 7.25 38.3996 7.25 38V32.1242H1C0.447715 32.1242 0 31.6765 0 31.1242V12ZM29 12H2V30.1242H8.25C8.80228 30.1242 9.25 30.5719 9.25 31.1242V35.6734L14.8119 30.3986C14.9977 30.2224 15.2439 30.1242 15.5 30.1242H29V12Z" fill="#02509C"/>
<path d="M18.5625 22H5.4375C5.175 22 5 22.2 5 22.5C5 22.8 5.175 23 5.4375 23H18.5625C18.825 23 19 22.8 19 22.5C19 22.2 18.825 22 18.5625 22Z" fill="#02509C"/>
<path d="M18.5625 19H5.4375C5.175 19 5 19.2 5 19.5C5 19.8 5.175 20 5.4375 20H18.5625C18.825 20 19 19.8 19 19.5C19 19.2 18.825 19 18.5625 19Z" fill="#02509C"/>
<path d="M39.4375 5H22.5625C22.225 5 22 5.2 22 5.5C22 5.8 22.225 6 22.5625 6H39.4375C39.775 6 40 5.8 40 5.5C40 5.2 39.775 5 39.4375 5Z" fill="#02509C"/>
<path d="M18.4375 15H1.5625C1.225 15 1 15.2 1 15.5C1 15.8 1.225 16 1.5625 16H18.4375C18.775 16 19 15.8 19 15.5C19 15.2 18.775 15 18.4375 15Z" fill="#02509C"/>
</svg>
