<svg width="30" height="37" viewBox="0 0 30 37" fill="none" xmlns="http://www.w3.org/2000/svg">
<path d="M25.4354 1.73824C21.9577 -4.70141 8.04663 8.17788 7.05298 17.0943C6.55616 18.2502 4.96632 20.1656 2.58157 18.5805C-0.39937 16.5991 -0.39937 23.5341 0.594276 30.4691C1.58792 37.4041 29.41 41.367 29.9068 28.983C30.4037 16.5991 28.9132 8.17788 25.4354 1.73824Z" fill="#E4ECF7"/>
<path d="M1 34H28C29.1 34 30 33.1 30 32V6C30 4.9 29.1 4 28 4H6C4.9 4 4 4.9 4 6V18H1C0.4 18 0 18.4 0 19V33C0 33.6 0.4 34 1 34ZM2 20H4V28C4 28.6 4.4 29 5 29C5.6 29 6 28.6 6 28V6H28V32H2V20Z" fill="#02509C"/>
<path d="M24.5625 25H11.4375C11.175 25 11 25.2 11 25.5C11 25.8 11.175 26 11.4375 26H24.5625C24.825 26 25 25.8 25 25.5C25 25.2 24.825 25 24.5625 25Z" fill="#02509C"/>
<path d="M24.5625 22H11.4375C11.175 22 11 22.2 11 22.5C11 22.8 11.175 23 11.4375 23H24.5625C24.825 23 25 22.8 25 22.5C25 22.2 24.825 22 24.5625 22Z" fill="#02509C"/>
<path d="M24.5625 19H11.4375C11.175 19 11 19.2 11 19.5C11 19.8 11.175 20 11.4375 20H24.5625C24.825 20 25 19.8 25 19.5C25 19.2 24.825 19 24.5625 19Z" fill="#02509C"/>
<path d="M24.5625 16H11.4375C11.175 16 11 16.2 11 16.5C11 16.8 11.175 17 11.4375 17H24.5625C24.825 17 25 16.8 25 16.5C25 16.2 24.825 16 24.5625 16Z" fill="#02509C"/>
<path d="M24.5625 13H11.4375C11.175 13 11 13.2 11 13.5C11 13.8 11.175 14 11.4375 14H24.5625C24.825 14 25 13.8 25 13.5C25 13.2 24.825 13 24.5625 13Z" fill="#02509C"/>
<path d="M24.5625 10H11.4375C11.175 10 11 10.2 11 10.5C11 10.8 11.175 11 11.4375 11H24.5625C24.825 11 25 10.8 25 10.5C25 10.2 24.825 10 24.5625 10Z" fill="#02509C"/>
<path d="M10 10.5C10 10.7761 9.77614 11 9.5 11C9.22386 11 9 10.7761 9 10.5C9 10.2239 9.22386 10 9.5 10C9.77614 10 10 10.2239 10 10.5Z" fill="#02509C"/>
<path d="M10 13.5C10 13.7761 9.77614 14 9.5 14C9.22386 14 9 13.7761 9 13.5C9 13.2239 9.22386 13 9.5 13C9.77614 13 10 13.2239 10 13.5Z" fill="#02509C"/>
<path d="M10 16.5C10 16.7761 9.77614 17 9.5 17C9.22386 17 9 16.7761 9 16.5C9 16.2239 9.22386 16 9.5 16C9.77614 16 10 16.2239 10 16.5Z" fill="#02509C"/>
<path d="M10 19.5C10 19.7761 9.77614 20 9.5 20C9.22386 20 9 19.7761 9 19.5C9 19.2239 9.22386 19 9.5 19C9.77614 19 10 19.2239 10 19.5Z" fill="#02509C"/>
<path d="M10 22.5C10 22.7761 9.77614 23 9.5 23C9.22386 23 9 22.7761 9 22.5C9 22.2239 9.22386 22 9.5 22C9.77614 22 10 22.2239 10 22.5Z" fill="#02509C"/>
<path d="M10 25.5C10 25.7761 9.77614 26 9.5 26C9.22386 26 9 25.7761 9 25.5C9 25.2239 9.22386 25 9.5 25C9.77614 25 10 25.2239 10 25.5Z" fill="#02509C"/>
</svg>
