<svg width="31" height="39" viewBox="0 0 31 39" fill="none" xmlns="http://www.w3.org/2000/svg">
<path d="M25.5981 2.49989C22.0981 -4.00011 8.09808 8.99989 7.09808 17.9999C6.59808 19.1666 4.99808 21.1 2.59808 19.5C-0.401924 17.5 -0.401924 24.5 0.598076 31.5C1.59808 38.5 29.5981 42.5 30.0981 30C30.5981 17.5 29.0981 8.99989 25.5981 2.49989Z" fill="#E4ECF7"/>
<path d="M2 35H29C30.1 35 31 34.1 31 33V7C31 5.9 30.1 5 29 5H7C5.9 5 5 5.9 5 7V19H2C1.4 19 1 19.4 1 20V34C1 34.6 1.4 35 2 35ZM3 21H5V29C5 29.6 5.4 30 6 30C6.6 30 7 29.6 7 29V7H29V33H3V21Z" fill="#02509C"/>
<path d="M26 26H11C10.7 26 10.5 26.2 10.5 26.5C10.5 26.8 10.7 27 11 27H26C26.3 27 26.5 26.8 26.5 26.5C26.5 26.2 26.3 26 26 26Z" fill="#02509C"/>
<path d="M26 23H11C10.7 23 10.5 23.2 10.5 23.5C10.5 23.8 10.7 24 11 24H26C26.3 24 26.5 23.8 26.5 23.5C26.5 23.2 26.3 23 26 23Z" fill="#02509C"/>
<path d="M26 20H11C10.7 20 10.5 20.2 10.5 20.5C10.5 20.8 10.7 21 11 21H26C26.3 21 26.5 20.8 26.5 20.5C26.5 20.2 26.3 20 26 20Z" fill="#02509C"/>
<path d="M26 17H11C10.7 17 10.5 17.2 10.5 17.5C10.5 17.8 10.7 18 11 18H26C26.3 18 26.5 17.8 26.5 17.5C26.5 17.2 26.3 17 26 17Z" fill="#02509C"/>
<path d="M26 14H11C10.7 14 10.5 14.2 10.5 14.5C10.5 14.8 10.7 15 11 15H26C26.3 15 26.5 14.8 26.5 14.5C26.5 14.2 26.3 14 26 14Z" fill="#02509C"/>
<path d="M26 11H11C10.7 11 10.5 11.2 10.5 11.5C10.5 11.8 10.7 12 11 12H26C26.3 12 26.5 11.8 26.5 11.5C26.5 11.2 26.3 11 26 11Z" fill="#02509C"/>
</svg>
