<svg width="39" height="39" viewBox="0 0 39 39" fill="none" xmlns="http://www.w3.org/2000/svg">
<path d="M22.0981 34.5C20.9434 36.5 18.0566 36.5 16.9019 34.5L5.21058 14.25C4.05588 12.25 5.49926 9.75 7.80866 9.75L31.1913 9.75C33.5007 9.75 34.9441 12.25 33.7894 14.25L22.0981 34.5Z" fill="#E4ECF7"/>
<path d="M35.8997 18.0664C35.8997 17.9668 35.8997 17.8671 35.8997 17.7675C35.8997 17.7675 35.8997 17.7675 35.8997 17.6678L32.8903 8.69769C32.79 8.29902 32.3887 8 31.9875 8H7.91223C7.51098 8 7.10972 8.29902 7.0094 8.69769L4 17.6678C4 17.6678 4 17.6678 4 17.7675C4 17.8671 4 17.9668 4 18.0664C4 18.0664 4 18.0665 4 18.1661C4 18.2658 4.00001 18.3654 4.10032 18.4651V18.5648C4.10032 18.5648 4.10031 18.6645 4.20062 18.6645L19.2476 37.6013C19.4483 37.8007 19.7492 38 20.0502 38C20.3511 38 20.652 37.9003 20.8527 37.6013L35.8997 18.6645C35.8997 18.6645 35.8997 18.5648 36 18.5648V18.4651C35.8997 18.3654 35.8997 18.2658 35.8997 18.0664C35.8997 18.1661 35.8997 18.1661 35.8997 18.0664ZM33.4922 17.0698H27.1724L31.3856 10.7907L33.4922 17.0698ZM19.9498 10.093L24.6646 17.0698H15.0345L19.8495 10.093H19.9498ZM25.768 17.0698L21.0533 10.093H30.7837L26.1693 17.0698H25.768ZM13.7304 17.0698H13.6301L9.11599 10.093H18.7461L13.7304 17.0698ZM25.0658 19.0631L19.8495 35.309L14.5329 19.0631H25.0658ZM8.31348 10.7907L12.4263 17.0698H6.20689L8.31348 10.7907ZM13.4295 19.0631L18.0439 33.1163L6.9091 19.0631H13.4295ZM21.5549 33.3156L26.1693 19.0631H32.8903L21.5549 33.3156Z" fill="#02509C"/>
</svg>
