<svg width="32" height="31" viewBox="0 0 32 31" fill="none" xmlns="http://www.w3.org/2000/svg">
<rect x="4" y="7" width="23" height="23" rx="5" fill="#E4ECF7"/>
<path d="M31 5H20V2C20 0.9 19.1 0 18 0H13C11.9 0 11 0.9 11 2V5H1C0.4 5 0 5.4 0 6C0 6.6 0.4 7 1 7H3V29C3 30.1 3.9 31 5 31H27C28.1 31 29 30.1 29 29V7H31C31.6 7 32 6.6 32 6C32 5.4 31.6 5 31 5ZM13 2H18V5H13V2ZM27 29H5V7H27V29Z" fill="#02509C"/>
<path d="M15.5 12.5C15.2 12.5 15 12.7 15 13V23C15 23.3 15.2 23.5 15.5 23.5C15.8 23.5 16 23.3 16 23V13C16 12.7 15.8 12.5 15.5 12.5Z" fill="#02509C"/>
<path d="M11.5 14.5C11.2 14.5 11 14.7 11 15V21C11 21.3 11.2 21.5 11.5 21.5C11.8 21.5 12 21.3 12 21V15C12 14.7 11.8 14.5 11.5 14.5Z" fill="#02509C"/>
<path d="M19 21C19 21.3 19.2 21.5 19.5 21.5C19.8 21.5 20 21.3 20 21V15C20 14.7 19.8 14.5 19.5 14.5C19.2 14.5 19 14.7 19 15V21Z" fill="#02509C"/>
</svg>
