<svg width="23" height="32" viewBox="0 0 23 32" fill="none" xmlns="http://www.w3.org/2000/svg">
<path d="M22.2636 11.6647L23 10.7059L22.1443 9.8539L22.7087 8.78633L21.7185 8.08737L22.0937 6.94124L20.9983 6.41752L21.1702 5.22204L20.006 4.89068L19.9716 3.68715L18.77 3.55823L18.5333 2.37585L17.3236 2.44837L16.8917 1.32741L15.7103 1.60136L15.0963 0.569024L13.9766 1.03736L13.1917 0.120852L12.1721 0.771464L11.2365 0L10.3474 0.811758L9.29752 0.208464L8.55913 1.16124L7.42223 0.744278L6.85275 1.80882L5.66125 1.58826L5.28093 2.72935L4.0702 2.71122L3.88913 3.90167L2.69053 4.08699L2.71483 5.29355L1.57284 5.67727L1.79638 6.86166L0.730302 7.43574L1.1531 8.56476L0.201289 9.30802L0.812226 10.3444L0 11.2357L0.777839 12.1623L0.132516 13.1765L1.05195 13.956L0.582631 15.0739L1.62445 15.6812L1.34933 16.8545L2.48418 17.2836L2.41238 18.4841L3.60289 18.7168L3.73742 19.9153L4.93095 19.9415L0.87998 29.8931C0.800074 30.0884 0.851681 30.314 1.00947 30.456C1.16726 30.5991 1.39686 30.6273 1.58398 30.5275L5.73003 28.3572L7.55373 31.7351C7.64173 31.8983 7.81368 32 7.99878 32C8.00789 32 8.01697 32 8.02607 32C8.22129 31.9889 8.39425 31.8671 8.46708 31.6868L11.7615 23.5994L14.8263 31.6727C14.896 31.856 15.065 31.9819 15.2602 31.997C15.2733 31.998 15.2865 31.998 15.2996 31.998C15.4807 31.998 15.6496 31.9013 15.7396 31.7432L17.6503 28.3833L21.7457 30.6111C21.8257 30.6545 21.9177 30.6736 21.9986 30.6726C22.2383 30.6847 22.5145 30.451 22.5145 30.169C22.5145 30.0572 22.4771 29.9535 22.4154 29.8699L18.5212 19.6262L19.6581 19.5457L19.741 18.3461L20.9204 18.0591L20.7929 16.8596L21.9005 16.3812L21.5748 15.221L22.5904 14.5603L22.0674 13.4706L22.9565 12.6497L22.2636 11.6647ZM7.93909 30.3171L6.3885 27.4447C6.29747 27.2755 6.12247 27.1788 5.94243 27.1788C5.86252 27.1788 5.78262 27.1969 5.70777 27.2372L2.34055 29.0007L5.57023 21.0664L6.48561 20.9305L7.01361 22.0142L8.16667 21.6385L8.8737 22.6205L9.94284 22.0554L10.8046 22.8974L11.0342 22.7212L7.93909 30.3171ZM21.0367 29.0763L17.7029 27.2634C17.4601 27.1315 17.1567 27.2181 17.0201 27.4568L15.3957 30.313L12.4988 22.6829L12.7507 22.8592L13.5751 21.9688L14.6695 22.4815L15.33 21.4693L16.4962 21.7886L16.922 20.8016L16.9433 20.8066C17.0778 20.8358 17.2032 20.7895 17.3135 20.7149L17.8799 20.7724L21.0367 29.0763ZM20.2892 12.3728L19.6075 13.0032L20.0091 13.8392L19.2343 14.3437L19.4841 15.2331L18.6304 15.6017L18.7285 16.5212L17.8303 16.7397L17.7676 17.6623L16.8381 17.7288L16.6236 18.6251L15.7012 18.5335L15.335 19.3825L14.4419 19.1378L13.9362 19.9132L13.0946 19.5185L12.4655 20.1993L11.7068 19.6695L10.9675 20.2355L10.3039 19.5859L9.48766 20.017L8.94754 19.2667L8.06351 19.5547L7.65791 18.7218L6.74049 18.8578L6.48157 17.9685L5.55402 17.9473L5.45086 17.0308L4.5385 16.8515L4.59313 15.931L3.72325 15.6017L3.93466 14.6972L3.13256 14.2299L3.48961 13.3799L2.7836 12.7817L3.28023 12.0031L2.68547 11.2951L3.31258 10.6072L2.84327 9.81159L3.56851 9.24558L3.24279 8.37844L4.05804 7.9383L3.88713 7.03188L4.76911 6.73477L4.74991 5.81223L5.6673 5.67021L5.8059 4.75574L6.73342 4.76983L7.02574 3.89462L7.94112 4.06382L8.37707 3.24803L9.25199 3.56931L9.81841 2.83813L10.6215 3.29939L11.3053 2.67497L12.0214 3.26515L12.7982 2.76965L13.397 3.46861L14.2538 3.11106L14.7241 3.90368L15.6334 3.69219L15.9652 4.5533L16.8947 4.4969L17.0768 5.40635L17.9982 5.50504L18.0245 6.42659L18.9157 6.68039L18.7831 7.59789L19.6196 7.99672L19.3324 8.87495L20.091 9.41075L19.6581 10.2306L20.3155 10.8852L19.7521 11.6194L20.2892 12.3728Z" fill="#55D585"/>
<path d="M18.7629 10.6475L18.513 10.3977L18.6789 10.0855C18.7973 9.86188 18.7305 9.58592 18.5241 9.43988L18.2328 9.23443L18.3431 8.89804C18.422 8.65834 18.3097 8.39749 18.0811 8.28872L17.7595 8.13563L17.81 7.78212C17.8454 7.53336 17.6907 7.29668 17.4479 7.22618L17.1061 7.12848L17.0959 6.77398C17.0889 6.52219 16.8957 6.31471 16.6438 6.28853L16.2918 6.25026L16.222 5.90178C16.1735 5.65604 15.9661 5.48786 15.695 5.49793L15.339 5.51908L15.2126 5.18974C15.1236 4.95407 14.8727 4.82313 14.6249 4.87953L14.276 4.9601L14.0959 4.65797C13.9664 4.44043 13.6974 4.35179 13.4647 4.45049L13.133 4.58848L12.9024 4.31956C12.7385 4.12719 12.4583 4.0859 12.2449 4.22186L11.9455 4.41222L11.6684 4.1836C11.4742 4.02346 11.1889 4.0295 11.0038 4.20072L10.7418 4.43941L10.4333 4.26216C10.2128 4.13626 9.93367 4.19165 9.77993 4.39106L9.56348 4.67005L9.22866 4.54617C8.99197 4.45956 8.72698 4.56026 8.60661 4.78184L8.43971 5.09506L8.08772 5.03061C7.83991 4.98831 7.59512 5.12931 7.51522 5.367L7.40397 5.70237L7.04692 5.69734C7.0449 5.69734 7.04187 5.69734 7.03985 5.69734C6.79002 5.69734 6.57759 5.87962 6.54016 6.12537L6.48654 6.47586L6.13354 6.53025C5.88371 6.56953 5.70065 6.78607 5.70571 7.03886L5.71278 7.39336L5.37595 7.50616C5.13724 7.58573 4.99361 7.82845 5.04014 8.0752L5.10589 8.4257L4.79131 8.59589C4.56879 8.71574 4.46968 8.97962 4.55869 9.21428L4.68411 9.54765L4.40494 9.7662C4.20568 9.9213 4.15307 10.2003 4.28051 10.4168L4.45955 10.721L4.22085 10.9838C4.05092 11.1702 4.04484 11.4522 4.20668 11.6445L4.43729 11.9175L4.24613 12.2176C4.1116 12.4291 4.15408 12.7071 4.34626 12.8702L4.61734 13.0988L4.47878 13.4292C4.38167 13.6608 4.47168 13.9297 4.69016 14.0576L4.99563 14.2349L4.91472 14.5803C4.85707 14.8261 4.99057 15.0759 5.22726 15.1655L5.56106 15.2914L5.54082 15.6439C5.52564 15.8957 5.69963 16.1203 5.94846 16.1676L6.29942 16.2361L6.33887 16.5886C6.36719 16.8394 6.5776 17.0297 6.83047 17.0358L7.1865 17.0438L7.28664 17.3863C7.35643 17.628 7.59919 17.779 7.846 17.7438L8.19696 17.6914L8.35173 18.0097C8.463 18.2373 8.72394 18.3481 8.96366 18.2685L9.30453 18.1587L9.51289 18.4468C9.65955 18.6512 9.93773 18.7157 10.1613 18.5978L10.4748 18.4327L10.7297 18.6814C10.8278 18.7771 10.9553 18.8255 11.0837 18.8255C11.192 18.8255 11.3002 18.7912 11.3922 18.7207L11.6734 18.5052L11.9647 18.7086C12.1711 18.8537 12.4553 18.8225 12.6272 18.6381L12.87 18.3763L13.1916 18.5263C13.4202 18.6361 13.6933 18.5556 13.8309 18.3451L14.0251 18.0459L14.369 18.1406C14.6128 18.2081 14.8687 18.0852 14.9678 17.8536L15.1084 17.5283L15.4634 17.5635C15.7173 17.5857 15.9469 17.4245 16.0056 17.1788L16.0875 16.8364L16.4425 16.8112C16.6944 16.793 16.8936 16.5936 16.9108 16.3429L16.9351 15.9883L17.282 15.9037C17.5278 15.8433 17.6917 15.6117 17.6644 15.3619L17.627 15.0084L17.9527 14.8684C18.1843 14.7677 18.3067 14.5129 18.2389 14.2702L18.1438 13.9287L18.4422 13.7344C18.6546 13.5964 18.7315 13.3234 18.6223 13.0958L18.4685 12.7756L18.7295 12.5338C18.9156 12.3626 18.9439 12.0806 18.7983 11.8752L18.5929 11.5861L18.8094 11.3041C18.9601 11.1087 18.9419 10.8257 18.7629 10.6475ZM17.5501 11.8701L17.7139 12.1018L17.5046 12.2951C17.3427 12.4462 17.2972 12.6829 17.3923 12.8813L17.5157 13.1381L17.278 13.2932C17.0929 13.4131 17.0079 13.6387 17.0676 13.8502L17.1445 14.1231L16.8825 14.2359C16.6792 14.3245 16.5568 14.533 16.5811 14.7516L16.6114 15.0346L16.3353 15.101C16.1219 15.1534 15.9661 15.3367 15.951 15.5563L15.9317 15.8403L15.6455 15.8614C15.425 15.8776 15.2409 16.0337 15.1893 16.2472L15.1236 16.5211L14.8394 16.4929C14.6209 16.4758 14.4125 16.5946 14.3245 16.7961L14.2122 17.0569L13.9371 16.9814C13.7247 16.922 13.4991 17.0086 13.3788 17.1929L13.223 17.4316L12.9641 17.3107C12.7648 17.2171 12.5281 17.2634 12.3764 17.4245L12.1822 17.634L11.9495 17.4719C11.7685 17.345 11.5268 17.351 11.3508 17.485L11.1232 17.6592L10.9178 17.4588C10.8207 17.3641 10.6933 17.3147 10.5638 17.3147C10.4829 17.3147 10.402 17.3339 10.3272 17.3732L10.0773 17.5061L9.91142 17.2745C9.78398 17.0972 9.55437 17.0197 9.34398 17.0891L9.07089 17.1778L8.94646 16.922C8.84936 16.7246 8.63192 16.6138 8.41748 16.644L8.13628 16.6853L8.05636 16.4113C7.99466 16.1998 7.80248 16.0538 7.58198 16.0488L7.29775 16.0417L7.26642 15.7607C7.24215 15.5422 7.07727 15.3639 6.86082 15.3216L6.57961 15.2662L6.5968 14.9852C6.60995 14.7647 6.47847 14.5622 6.27112 14.4847L6.00306 14.382L6.06779 14.105C6.11837 13.8894 6.0223 13.6669 5.83113 13.5561L5.58635 13.4131L5.69661 13.1492C5.78157 12.9478 5.72493 12.7141 5.55702 12.5721L5.33953 12.3878L5.49226 12.1481C5.60959 11.9628 5.59445 11.7231 5.45284 11.5549L5.26875 11.3353L5.46093 11.1238C5.60962 10.9617 5.63491 10.721 5.52263 10.5306L5.37898 10.2879L5.6015 10.1137C5.77446 9.97871 5.84021 9.74707 5.76334 9.54161L5.66321 9.27371L5.91506 9.13673C6.10825 9.03199 6.21245 8.81646 6.17098 8.60094L6.11838 8.32095L6.38947 8.2293C6.59884 8.1598 6.73842 7.96139 6.73336 7.74284L6.72728 7.45883L7.0105 7.41552C7.22796 7.38128 7.39991 7.21007 7.43227 6.99253L7.47478 6.71254L7.76 6.71657C7.95724 6.69239 8.17773 6.5796 8.24752 6.37213L8.33655 6.10322L8.61976 6.15559C8.83622 6.19286 9.05468 6.09113 9.15887 5.89675L9.29342 5.64597L9.56246 5.74567C9.76982 5.8192 10.0025 5.75475 10.138 5.58052L10.3109 5.35693L10.5578 5.49893C10.7489 5.60871 10.9896 5.58252 11.1525 5.43346L11.3629 5.2421L11.5844 5.42541C11.7543 5.5654 11.9941 5.5805 12.1792 5.46166L12.4179 5.30958L12.602 5.5241C12.7446 5.69129 12.9803 5.7477 13.1826 5.66209L13.4486 5.5523L13.5932 5.79402C13.7055 5.98336 13.928 6.07602 14.1434 6.02767L14.4246 5.96222L14.5268 6.2281C14.6057 6.43255 14.7999 6.55744 15.0305 6.54938L15.3168 6.53226L15.3734 6.81123C15.4169 7.02777 15.5959 7.18992 15.8154 7.21308L16.0976 7.2433L16.1057 7.52631C16.1118 7.74587 16.2605 7.93621 16.4729 7.99664L16.748 8.0742L16.7075 8.3572C16.6762 8.57475 16.7905 8.78827 16.9897 8.88194L17.2466 9.0048L17.1587 9.27472C17.0899 9.48421 17.1667 9.71383 17.3468 9.84073L17.5794 10.0049L17.4469 10.2557C17.3437 10.4501 17.3802 10.6908 17.537 10.8469L17.7382 11.0473L17.5653 11.2739C17.4277 11.4481 17.4227 11.6909 17.5501 11.8701Z" fill="#55D585"/>
<path d="M11.4995 6.74878C8.89599 6.74878 6.77795 8.85875 6.77795 11.4511C6.77795 11.7291 7.00453 11.9547 7.28369 11.9547C7.56286 11.9547 7.78943 11.7291 7.78943 11.4511C7.78943 9.41369 9.45432 7.75592 11.4995 7.75592C11.7787 7.75592 12.0053 7.53032 12.0053 7.25235C12.0053 6.97438 11.7797 6.74878 11.4995 6.74878Z" fill="#55D585"/>
</svg>
