<svg width="24" height="32" viewBox="0 0 24 32" fill="none" xmlns="http://www.w3.org/2000/svg">
<path d="M23.9817 12.1522C23.919 5.43992 18.5685 -0.000488281 11.9985 -0.000488281C5.43247 -0.000488281 0.0819595 5.43891 0.0193231 12.1502C-0.0139525 12.504 -0.022765 13.1435 0.149485 14.0917C0.360883 15.5319 0.814039 16.9071 1.49815 18.181C3.20988 21.9857 6.25164 26.4098 10.5393 31.33C10.9102 31.756 11.4417 31.9995 11.9995 31.9995C12.5564 31.9995 13.0878 31.756 13.4597 31.33C17.7474 26.4098 20.7882 21.9867 22.4999 18.181C23.185 16.9041 23.6391 15.529 23.8476 14.0907C24.0218 13.1425 24.014 12.504 23.9817 12.1522ZM21.9166 13.7579C21.7375 15.0198 21.3343 16.2065 20.752 17.2749C19.4738 20.1385 16.9517 24.311 11.9995 29.9929C7.04634 24.309 4.52425 20.1375 3.24607 17.2729C2.66277 16.2045 2.26052 15.0178 2.08044 13.7569C1.89351 12.7456 1.97572 12.2695 1.97572 12.2695C1.97572 6.59857 6.46401 2.00207 11.9985 2.00207C17.537 2.00207 22.0253 6.59857 22.0253 12.2695C22.0253 12.2705 22.1065 12.7476 21.9166 13.7579Z" fill="#55D585"/>
<path d="M11.9986 7.56592C9.46675 7.56592 7.40662 9.67576 7.40662 12.2707C7.40662 14.8646 9.46675 16.9744 11.9986 16.9744C14.5325 16.9744 16.5926 14.8646 16.5926 12.2707C16.5926 9.67676 14.5315 7.56592 11.9986 7.56592ZM11.9986 15.9731C10.0041 15.9731 8.38531 14.3153 8.38531 12.2717C8.38531 10.227 10.0041 8.56918 11.9986 8.56918C13.9971 8.56918 15.6139 10.227 15.6139 12.2717C15.6139 14.3153 13.9961 15.9731 11.9986 15.9731Z" fill="#55D585"/>
</svg>
