<svg width="54" height="72" viewBox="0 0 54 72" fill="none" xmlns="http://www.w3.org/2000/svg">
<path d="M52.5 27.166C52.5 42.766 35.8333 61.8327 27.5 70.666C19 62.666 2 43.066 2 28.666C2 10.666 15.5 1.66602 24.5 1.66602C37 1.66602 52.5 7.66602 52.5 27.166Z" fill="white"/>
<path fill-rule="evenodd" clip-rule="evenodd" d="M27.5 70.666C35.8334 61.8327 52.5 42.766 52.5 27.166C52.5 7.66602 37 1.66602 24.5 1.66602C22.4669 1.66602 20.2042 2.12529 17.9193 3.04384C29.4047 3.03924 42.1314 8.27093 44.1668 25.3196C45.8886 39.742 33.6202 58.8612 26.0872 69.3051C26.5793 69.7894 27.0515 70.2439 27.5 70.666Z" fill="#EFF1F9"/>
<path d="M53.9588 27.3431C53.8178 12.2404 41.7791 -0.000488281 26.9967 -0.000488281C12.2231 -0.000488281 0.184409 12.2381 0.043477 27.3386C-0.0313931 28.1347 -0.0512213 29.5735 0.336341 31.7068C0.811987 34.9475 1.83159 38.0416 3.37083 40.9079C7.22223 49.4684 14.0662 59.4226 23.7134 70.4931C24.548 71.4516 25.7437 71.9995 26.9989 71.9995C28.2519 71.9995 29.4476 71.4516 30.2844 70.4931C39.9316 59.4226 46.7734 49.4706 50.6248 40.9079C52.1663 38.0348 53.188 34.9408 53.6571 31.7046C54.0491 29.5713 54.0314 28.1347 53.9588 27.3431ZM49.3124 30.9559C48.9094 33.7951 48.0021 36.4652 46.6919 38.8692C43.816 45.3122 38.1413 54.7003 26.9989 67.4847C15.8543 54.6958 10.1796 45.3099 7.30367 38.8647C5.99124 36.4607 5.08617 33.7906 4.68099 30.9537C4.2604 28.6782 4.44538 27.607 4.44538 27.607C4.44538 14.8474 14.544 4.50526 26.9967 4.50526C39.4581 4.50526 49.5569 14.8474 49.5569 27.607C49.5569 27.6093 49.7396 28.6827 49.3124 30.9559Z" fill="#02509C"/>
<path d="M26.9973 17.0239C21.3006 17.0239 16.6653 21.7711 16.6653 27.6096C16.6653 33.446 21.3006 38.193 26.9973 38.193C32.6985 38.193 37.3338 33.446 37.3338 27.6096C37.3338 21.7733 32.6963 17.0239 26.9973 17.0239ZM26.9973 35.9401C22.5095 35.9401 18.8673 32.2101 18.8673 27.6118C18.8673 23.0114 22.5095 19.2813 26.9973 19.2813C31.4939 19.2813 35.1317 23.0114 35.1317 27.6118C35.1317 32.2101 31.4917 35.9401 26.9973 35.9401Z" fill="#02509C"/>
</svg>
